<?xml version="1.0" standalone="no"?>
<!DOCTYPE svg PUBLIC "-//W3C//DTD SVG 20010904//EN"
 "http://www.w3.org/TR/2001/REC-SVG-20010904/DTD/svg10.dtd">
<svg version="1.0" xmlns="http://www.w3.org/2000/svg"
 width="266.000000pt" height="44.000000pt" viewBox="0 0 266.000000 44.000000"
 preserveAspectRatio="xMidYMid meet">

<g transform="translate(0.000000,44.000000) scale(0.100000,-0.100000)"
fill="#000000" stroke="none">
<path d="M808 433 c-24 -6 -26 -93 -3 -93 8 0 15 9 15 20 0 19 7 20 95 20 l95
0 0 -160 0 -160 -95 0 c-88 0 -95 1 -95 20 0 11 -7 20 -15 20 -22 0 -21 -86 1
-94 26 -10 194 -7 215 4 18 10 19 23 19 210 0 187 -1 200 -19 210 -19 10 -178
12 -213 3z"/>
<path d="M520 240 l0 -130 25 0 25 0 0 130 0 130 -25 0 -25 0 0 -130z"/>
<path d="M630 240 c0 -123 1 -130 20 -130 19 0 20 7 20 130 0 123 -1 130 -20
130 -19 0 -20 -7 -20 -130z"/>
<path d="M1760 240 c0 -121 1 -130 19 -130 11 0 21 5 23 10 2 7 14 6 34 -1 85
-33 153 94 84 156 -21 19 -73 25 -102 11 -16 -7 -18 -2 -18 38 0 39 -3 46 -20
46 -19 0 -20 -7 -20 -130z m124 4 c34 -33 7 -98 -37 -92 -12 2 -28 15 -36 29
-13 24 -13 29 2 53 20 29 48 34 71 10z"/>
<path d="M2180 240 l0 -130 25 0 25 0 0 130 0 130 -25 0 -25 0 0 -130z"/>
<path d="M40 230 l0 -120 25 0 c23 0 25 3 25 50 l0 50 55 0 55 0 0 -50 c0 -47
2 -50 25 -50 l25 0 0 120 0 120 -25 0 c-23 0 -25 -3 -25 -50 l0 -50 -55 0 -55
0 0 50 c0 47 -2 50 -25 50 l-25 0 0 -120z"/>
<path d="M1220 230 c0 -112 1 -120 20 -120 17 0 19 8 22 72 l3 72 35 -57 c19
-31 40 -57 46 -57 7 0 27 26 46 58 l33 57 3 -72 c3 -70 4 -73 27 -73 l25 0 0
121 c0 118 0 120 -22 117 -14 -2 -35 -25 -62 -70 -23 -36 -44 -69 -47 -73 -4
-3 -26 28 -50 69 -28 49 -50 76 -61 76 -16 0 -18 -12 -18 -120z"/>
<path d="M777 299 c-4 -14 -12 -19 -24 -17 -28 6 -45 -23 -26 -44 13 -14 13
-21 4 -32 -19 -22 -5 -55 20 -49 15 4 22 0 26 -16 7 -27 40 -27 48 0 5 14 13
19 26 16 25 -7 48 31 28 44 -11 7 -12 12 -2 28 17 27 6 51 -22 51 -15 0 -26 8
-30 20 -8 26 -41 26 -48 -1z m58 -79 c0 -29 -4 -36 -23 -38 -43 -6 -69 37 -40
66 7 7 24 12 38 10 21 -3 25 -8 25 -38z"/>
<path d="M2008 309 c-10 -5 -18 -15 -18 -21 0 -7 5 -6 15 2 18 15 81 16 99 1
8 -7 17 -8 20 -3 14 24 -82 41 -116 21z"/>
<path d="M354 290 c-80 -32 -65 -159 19 -175 39 -8 87 9 87 30 0 12 -9 13 -43
9 -35 -5 -45 -2 -61 15 l-19 21 71 0 72 0 0 29 c0 20 -9 37 -31 55 -31 27 -58
31 -95 16z m76 -45 c18 -22 9 -27 -46 -23 -46 3 -47 4 -30 21 22 21 59 22 76
2z"/>
<path d="M1574 291 c-56 -24 -71 -100 -30 -148 35 -40 107 -40 142 0 49 57 17
143 -56 152 -19 3 -45 1 -56 -4z m82 -56 c14 -21 15 -31 6 -51 -15 -31 -37
-40 -68 -26 -19 9 -24 19 -24 46 0 57 56 76 86 31z"/>
<path d="M2321 287 c-73 -42 -62 -144 18 -168 44 -13 96 -1 96 22 0 10 -10 13
-37 11 -39 -3 -78 11 -78 28 0 6 32 10 71 10 l72 0 -7 32 c-4 18 -15 41 -24
51 -24 24 -81 31 -111 14z m77 -39 c21 -21 13 -28 -33 -28 -25 0 -45 4 -45 8
0 15 24 32 45 32 12 0 26 -5 33 -12z"/>
<path d="M2523 290 c-23 -10 -39 -49 -30 -75 4 -8 26 -20 50 -27 57 -17 55
-33 -3 -33 -34 0 -46 -4 -48 -17 -2 -13 7 -18 41 -23 62 -10 102 10 102 50 0
31 -23 49 -78 60 -43 9 -27 30 24 31 31 0 45 5 47 16 5 25 -60 36 -105 18z"/>
<path d="M2021 271 c-7 -5 -9 -11 -4 -14 5 -3 15 -2 23 3 7 4 24 4 37 -1 13
-5 23 -5 23 0 0 19 -54 27 -79 12z"/>
<path d="M2020 223 c0 -5 16 -8 35 -8 19 0 35 3 35 8 0 4 -16 7 -35 7 -19 0
-35 -3 -35 -7z"/>
<path d="M2020 128 c0 -4 16 -8 35 -8 19 0 35 2 35 4 0 2 -16 6 -35 8 -19 2
-35 0 -35 -4z"/>
</g>
</svg>
