<?xml version="1.0" standalone="no"?>
<!DOCTYPE svg PUBLIC "-//W3C//DTD SVG 20010904//EN"
 "http://www.w3.org/TR/2001/REC-SVG-20010904/DTD/svg10.dtd">
<svg version="1.0" xmlns="http://www.w3.org/2000/svg"
 width="493.000000pt" height="506.000000pt" viewBox="0 0 493.000000 506.000000"
 preserveAspectRatio="xMidYMid meet">

<g transform="translate(0.000000,506.000000) scale(0.100000,-0.100000)"
fill="#000000" stroke="none">
<path d="M2300 4883 c-74 -6 -281 -42 -335 -58 -65 -19 -17 -13 110 13 225 48
528 48 757 1 133 -27 193 -35 123 -15 -183 51 -450 75 -655 59z"/>
<path d="M1805 4790 c-11 -5 -57 -24 -103 -41 -45 -18 -80 -34 -78 -37 3 -2
34 7 68 21 35 14 88 35 118 46 30 11 46 20 35 20 -11 0 -29 -4 -40 -9z"/>
<path d="M3160 4759 c116 -45 148 -55 140 -46 -10 11 -209 87 -227 86 -10 0
29 -18 87 -40z"/>
<path d="M1550 4693 c-30 -11 -141 -75 -137 -79 2 -3 43 16 91 41 75 39 96 56
46 38z"/>
<path d="M3417 4655 c46 -25 86 -45 90 -45 11 1 -150 90 -162 90 -5 0 27 -20
72 -45z"/>
<path d="M1301 4556 c-103 -73 -89 -73 19 -1 64 43 66 45 54 45 -6 0 -38 -20
-73 -44z"/>
<path d="M3541 4597 c3 -4 34 -25 70 -48 35 -22 55 -32 44 -21 -19 18 -127 84
-114 69z"/>
<path d="M1179 4477 c-14 -12 -61 -50 -105 -84 -104 -81 -240 -217 -328 -328
-89 -112 -104 -136 -41 -67 l48 53 26 -25 c15 -14 53 -31 90 -41 54 -14 75
-14 133 -5 72 12 104 32 162 97 16 18 35 33 42 33 8 0 14 10 14 25 0 32 -27
34 -33 3 l-4 -23 -2 22 c-3 53 -87 55 -98 3 -5 -29 -8 -30 -59 -30 l-54 0 0
40 0 40 -52 0 -53 1 34 30 c21 19 40 29 52 26 15 -4 19 0 19 22 0 20 11 35 42
59 23 18 48 32 56 32 8 0 26 -14 41 -31 36 -43 64 -71 89 -91 21 -17 22 -17
22 0 -1 54 -30 140 -59 175 -15 17 -13 21 21 53 41 37 39 47 -3 11z m-329
-347 c0 -11 -4 -20 -10 -20 -5 0 -10 9 -10 20 0 11 5 20 10 20 6 0 10 -9 10
-20z"/>
<path d="M3725 4475 c61 -51 88 -66 40 -21 -27 25 -54 45 -60 46 -5 0 4 -11
20 -25z"/>
<path d="M1300 4325 l0 -155 190 0 190 0 0 -71 0 -70 27 3 c27 3 27 5 28 68
l0 65 785 0 785 0 3 -68 c3 -64 4 -68 25 -65 20 3 22 10 25 71 l3 67 132 0
c90 0 137 4 145 12 8 8 12 52 12 133 -1 102 -3 123 -19 143 l-19 22 -1156 0
-1156 0 0 -155z m2302 13 c3 -73 3 -139 1 -145 -4 -10 -243 -13 -1149 -13
l-1144 0 0 145 0 145 1144 0 1143 0 5 -132z"/>
<path d="M2750 4390 c0 -5 5 -10 10 -10 6 0 10 5 10 10 0 6 -4 10 -10 10 -5 0
-10 -4 -10 -10z"/>
<path d="M2040 4320 c0 -40 4 -70 10 -70 6 0 10 30 10 70 0 40 -4 70 -10 70
-6 0 -10 -30 -10 -70z"/>
<path d="M2103 4320 c0 -41 2 -58 4 -37 2 20 2 54 0 75 -2 20 -4 3 -4 -38z"/>
<path d="M2621 4325 l-1 -70 37 -2 c47 -2 63 11 63 53 0 40 -28 61 -60 44 -15
-8 -21 -8 -24 2 -3 7 -7 20 -9 28 -3 8 -6 -16 -6 -55z m79 0 c18 -22 3 -55
-25 -55 -29 0 -47 27 -34 52 12 22 42 23 59 3z"/>
<path d="M2800 4320 c0 -40 4 -70 10 -70 6 0 10 30 10 70 0 40 -4 70 -10 70
-6 0 -10 -30 -10 -70z"/>
<path d="M1793 4315 c0 -38 2 -55 4 -37 4 30 7 32 44 32 37 0 39 -2 39 -30 0
-16 5 -30 10 -30 6 0 10 28 10 65 0 37 -4 65 -10 65 -5 0 -10 -13 -10 -30 0
-28 -2 -30 -39 -30 -37 0 -40 2 -44 33 -2 17 -4 1 -4 -38z"/>
<path d="M2320 4315 c0 -37 4 -65 10 -65 6 0 10 21 10 48 l1 47 25 -48 c26
-50 38 -54 46 -12 4 19 2 23 -7 15 -15 -12 -26 0 -45 48 -22 55 -40 41 -40
-33z"/>
<path d="M2426 4358 c-8 -33 -7 -40 4 -33 6 4 10 -10 10 -34 0 -23 5 -41 10
-41 6 0 10 28 10 65 0 49 -3 65 -14 65 -7 0 -16 -10 -20 -22z"/>
<path d="M1949 4353 c-23 -6 -38 -44 -28 -70 11 -29 55 -41 76 -20 14 14 12
15 -17 14 -19 -1 -35 3 -37 11 -3 8 7 12 31 12 29 0 36 4 36 20 0 16 -30 43
-42 39 -2 -1 -10 -3 -19 -6z m49 -30 c2 -9 -7 -13 -27 -13 -30 0 -39 9 -24 24
11 10 46 3 51 -11z"/>
<path d="M2173 4349 c-34 -13 -41 -58 -13 -81 28 -23 43 -23 64 1 35 39 -3 99
-51 80z m42 -44 c0 -23 -5 -31 -22 -33 -26 -4 -41 31 -22 54 20 24 44 13 44
-21z"/>
<path d="M2510 4340 c-25 -25 -26 -52 -2 -73 24 -22 45 -21 65 1 23 26 21 58
-5 76 -29 20 -34 20 -58 -4z m55 -35 c0 -25 -4 -30 -25 -30 -16 0 -26 6 -28
18 -6 30 6 49 30 45 18 -2 23 -9 23 -33z"/>
<path d="M2879 4353 c-23 -6 -38 -44 -28 -70 11 -29 55 -41 76 -20 14 14 12
15 -17 14 -19 -1 -35 3 -37 11 -3 8 7 12 31 12 29 0 36 4 36 20 0 16 -30 43
-42 39 -2 -1 -10 -3 -19 -6z m49 -30 c2 -9 -7 -13 -27 -13 -30 0 -39 9 -24 24
11 10 46 3 51 -11z"/>
<path d="M2988 4349 c-19 -11 -25 -39 -8 -39 6 0 10 7 10 16 0 12 7 15 25 12
20 -4 23 -3 14 8 -13 16 -18 17 -41 3z"/>
<path d="M2750 4300 c0 -27 5 -50 10 -50 6 0 10 23 10 50 0 28 -4 50 -10 50
-5 0 -10 -22 -10 -50z"/>
<path d="M3031 4286 c-1 -15 -6 -17 -32 -12 -27 5 -30 4 -19 -9 26 -31 71 -9
57 27 -3 8 -6 5 -6 -6z"/>
<path d="M3851 4383 c9 -12 32 -35 52 -52 20 -16 58 -52 83 -80 25 -28 51 -51
57 -51 14 0 -28 44 -128 133 -43 40 -72 62 -64 50z"/>
<path d="M4060 4181 c0 -5 7 -14 16 -21 40 -34 36 -46 -26 -84 -33 -20 -62
-41 -65 -45 -3 -5 11 -32 30 -61 19 -29 35 -56 35 -61 0 -18 26 -8 76 30 85
64 85 64 147 -31 30 -46 60 -94 67 -108 7 -14 15 -20 17 -13 4 12 -39 86 -65
112 -8 8 -20 27 -26 41 -10 23 -194 250 -202 250 -2 0 -4 -4 -4 -9z"/>
<path d="M3826 4074 c-10 -7 -24 -15 -30 -17 -8 -3 -7 -9 2 -18 10 -11 17 -9
38 13 28 28 21 45 -10 22z"/>
<path d="M3413 4005 c3 -11 13 -51 22 -90 9 -38 28 -108 42 -155 14 -47 36
-128 50 -180 13 -52 42 -151 63 -220 35 -111 55 -198 75 -322 7 -45 71 -104
122 -114 77 -15 158 31 182 104 12 35 11 47 -14 128 -15 49 -42 127 -60 174
-18 47 -42 117 -55 155 -12 39 -37 108 -55 155 -18 47 -40 112 -48 146 -9 33
-31 98 -49 145 l-33 84 -123 5 c-120 5 -123 4 -119 -15z"/>
<path d="M1353 3937 c-17 -45 -39 -109 -48 -142 -9 -33 -32 -100 -50 -150 -18
-49 -41 -115 -50 -145 -18 -58 -61 -181 -75 -215 -19 -46 -41 -114 -55 -167
-22 -86 1 -140 77 -179 65 -33 118 -22 193 38 22 18 28 34 35 85 8 63 25 134
53 218 16 50 34 115 66 240 25 94 29 110 62 220 12 41 30 111 39 155 10 44 21
90 25 103 l7 22 -123 0 -124 0 -32 -83z"/>
<path d="M1895 4003 c-3 -10 -11 -38 -16 -63 -5 -25 -18 -88 -29 -140 -11 -52
-28 -140 -36 -195 -9 -55 -32 -176 -51 -270 -53 -260 -57 -289 -41 -321 23
-47 81 -86 135 -91 101 -9 171 63 172 175 1 24 6 73 11 110 31 204 52 380 65
539 8 98 18 199 23 226 l9 47 -117 0 c-103 0 -119 -2 -125 -17z"/>
<path d="M2400 3928 c0 -51 -5 -169 -10 -263 -24 -423 -30 -614 -21 -636 5
-13 25 -41 45 -61 63 -65 149 -64 220 2 l41 39 0 158 c-1 141 -13 431 -32 746
l-6 107 -119 0 -118 0 0 -92z"/>
<path d="M2905 3988 c3 -18 9 -65 15 -105 5 -39 10 -96 10 -125 0 -51 6 -101
51 -423 11 -82 24 -184 29 -225 11 -112 26 -138 97 -174 61 -31 123 -16 192
47 47 42 45 71 -29 397 -11 47 -27 130 -35 185 -8 55 -19 118 -24 140 -6 22
-19 85 -31 140 -12 55 -26 117 -31 138 l-10 37 -119 0 -119 0 4 -32z"/>
<path d="M4188 3942 c-38 -23 -36 -35 2 -14 16 9 30 20 30 25 0 9 1 9 -32 -11z"/>
<path d="M629 3908 c-31 -42 -53 -78 -62 -100 -12 -32 1 -19 28 30 15 26 37
57 48 69 11 13 18 25 15 28 -2 3 -15 -10 -29 -27z"/>
<path d="M513 3706 c-24 -40 -43 -78 -43 -84 0 -5 -14 -41 -31 -78 -54 -121
-81 -194 -76 -207 4 -8 6 -7 7 3 0 8 9 33 20 55 18 40 19 40 28 15 6 -14 24
-44 40 -66 53 -73 173 -94 268 -48 60 29 104 110 104 190 0 54 -4 68 -33 110
-19 27 -48 59 -66 71 -44 30 -124 39 -178 20 -24 -8 -43 -13 -43 -11 0 2 11
20 25 40 21 30 33 65 23 64 -2 -1 -22 -34 -45 -74z m257 -202 c0 -59 -3 -70
-26 -90 -24 -23 -32 -24 -150 -24 l-124 0 0 65 c0 54 3 67 20 77 11 7 20 18
20 25 0 10 32 13 130 13 l130 0 0 -66z"/>
<path d="M4365 3750 c4 -14 13 -32 20 -40 7 -8 25 -39 40 -68 14 -30 29 -52
31 -49 7 6 -26 70 -67 134 -19 30 -28 38 -24 23z"/>
<path d="M4142 3724 c-45 -31 -19 -114 36 -114 29 0 62 34 62 65 0 29 -32 65
-58 65 -10 0 -28 -7 -40 -16z m63 -43 c0 -8 -8 -19 -17 -25 -22 -13 -44 5 -34
29 7 20 51 16 51 -4z"/>
<path d="M4470 3544 c0 -5 15 -46 34 -91 32 -76 58 -153 51 -153 -1 0 -20 7
-41 16 -91 38 -220 -10 -255 -96 -41 -102 -15 -204 67 -261 42 -29 57 -34 110
-34 67 0 102 14 151 58 l32 30 5 -24 c18 -76 26 -222 26 -444 -1 -265 -13
-413 -50 -574 -11 -51 -19 -95 -17 -98 10 -10 53 206 67 339 16 151 13 576 -5
715 -16 118 -89 448 -104 468 -5 5 -14 26 -20 46 -13 42 -51 118 -51 103z
m-112 -351 c2 -8 -5 -13 -17 -13 -21 0 -35 13 -24 24 10 10 36 3 41 -11z m122
-46 l85 -2 1 -47 c1 -27 -2 -48 -7 -48 -5 0 -8 6 -6 13 1 6 -7 12 -18 12 -34
0 -47 13 -34 36 6 12 9 22 7 23 -2 2 -23 -6 -48 -17 -31 -14 -39 -22 -27 -25
9 -2 17 -12 17 -22 0 -15 -11 -19 -59 -25 -33 -4 -65 -4 -70 0 -6 3 -11 31
-11 62 l0 56 43 -7 c23 -4 80 -8 127 -9z m-6 -63 c8 -22 7 -34 -3 -34 -5 0
-11 11 -13 25 -6 28 6 34 16 9z"/>
<path d="M4551 3124 c0 -11 3 -14 6 -6 3 7 2 16 -1 19 -3 4 -6 -2 -5 -13z"/>
<path d="M317 3169 c-50 -213 -52 -233 -52 -629 0 -403 4 -447 59 -640 32
-112 33 -91 1 33 -49 193 -57 301 -52 667 4 347 9 391 57 581 12 45 19 86 18
91 -2 6 -16 -41 -31 -103z"/>
<path d="M604 2887 c-37 -15 -73 -50 -104 -100 -19 -32 -22 -49 -18 -111 3
-68 6 -77 42 -120 51 -63 75 -77 143 -83 99 -9 156 17 212 96 37 51 41 153 10
217 -27 55 -37 66 -91 94 -43 23 -143 26 -194 7z m210 -115 c2 -4 2 -55 -1
-115 l-6 -107 -53 0 -54 0 0 54 c0 34 5 56 13 59 6 3 -20 6 -59 6 l-71 1 -7
31 c-16 81 -20 78 114 78 65 0 121 -3 124 -7z m-124 -173 l0 -49 -55 0 -55 0
0 48 c0 27 2 51 4 53 2 2 27 2 55 1 l51 -4 0 -49z"/>
<path d="M1320 2467 c0 -151 3 -302 6 -336 l7 -61 403 0 404 0 0 40 c0 36 -3
40 -25 40 l-25 0 -2 293 -3 292 -382 3 -383 2 0 -273z m740 -32 c0 -177 -4
-275 -10 -275 -6 0 -10 98 -10 275 0 177 4 275 10 275 6 0 10 -98 10 -275z
m-260 199 c13 -34 13 -380 0 -405 -10 -17 -22 -19 -138 -19 -86 0 -132 4 -140
12 -9 9 -12 70 -12 215 0 182 2 203 18 212 9 6 72 11 140 11 122 0 123 0 132
-26z"/>
<path d="M1564 2597 c-2 -7 -3 -71 -2 -143 l3 -129 95 0 95 0 3 143 3 142 -96
0 c-69 0 -97 -4 -101 -13z"/>
<path d="M1641 2276 c-10 -12 -8 -17 7 -25 15 -8 23 -7 33 5 10 13 10 17 -2
25 -19 12 -25 11 -38 -5z"/>
<path d="M2230 2265 l0 -474 263 -3 c144 -2 486 -4 760 -6 l497 -3 0 91 0 90
-470 0 -470 0 0 390 0 390 -290 0 -290 0 0 -475z m550 206 c0 -132 -3 -246 -6
-255 -5 -14 -38 -16 -260 -16 l-254 0 0 255 0 255 260 0 260 0 0 -239z m-462
-343 c-2 -28 -7 -33 -28 -33 -19 0 -26 6 -28 24 -4 25 12 41 41 41 15 0 18 -7
15 -32z"/>
<path d="M2880 2446 c0 -186 4 -297 10 -301 6 -3 10 -22 10 -41 l0 -34 405 0
405 0 0 40 c0 38 -2 40 -30 40 l-30 0 0 295 0 295 -385 0 -385 0 0 -294z m750
-12 c0 -237 -2 -274 -15 -274 -13 0 -15 37 -15 273 0 151 3 277 6 280 20 20
24 -30 24 -279z m-276 204 c13 -18 16 -56 16 -203 0 -237 8 -225 -155 -225
-164 0 -155 -13 -155 227 0 234 -8 223 159 223 113 0 121 -1 135 -22z"/>
<path d="M3125 2597 c-3 -7 -4 -71 -3 -143 l3 -129 95 0 95 0 0 140 0 140 -93
3 c-70 2 -94 0 -97 -11z"/>
<path d="M3201 2276 c-10 -12 -8 -17 7 -25 16 -8 21 -7 26 5 12 31 -12 45 -33
20z"/>
<path d="M3810 2425 c0 -13 33 -15 233 -15 194 0 236 -3 255 -16 22 -15 22
-18 22 -275 0 -224 2 -259 15 -259 13 0 15 36 15 264 0 251 -1 265 -21 290
l-20 26 -250 0 c-215 0 -249 -2 -249 -15z"/>
<path d="M827 2252 c-13 -14 -17 -38 -17 -95 0 -45 4 -77 10 -77 6 0 10 28 10
65 0 104 1 105 225 105 117 0 185 4 185 10 0 6 -73 10 -198 10 -180 0 -200 -2
-215 -18z"/>
<path d="M1170 1870 l0 -90 494 0 c559 0 506 -9 506 90 0 99 53 90 -506 90
l-494 0 0 -90z"/>
<path d="M4546 1747 c-11 -28 -32 -83 -48 -121 -15 -38 -27 -71 -25 -73 5 -4
69 144 87 200 18 59 6 54 -14 -6z"/>
<path d="M364 1742 c3 -19 12 -48 20 -65 8 -18 27 -61 42 -96 15 -35 30 -59
32 -52 2 6 -1 18 -7 25 -6 7 -30 60 -52 117 -22 57 -38 89 -35 71z"/>
<path d="M4220 1661 c0 -49 3 -96 6 -105 5 -13 25 -16 119 -16 62 0 115 -3
118 -7 2 -5 2 -2 0 5 -1 8 -3 58 -3 113 l0 99 -120 0 -120 0 0 -89z"/>
<path d="M808 1453 l-3 -188 -99 -3 c-81 -2 -102 0 -117 14 -32 28 -21 1 21
-57 21 -30 48 -70 59 -89 11 -19 40 -57 65 -85 25 -27 46 -52 46 -55 0 -8 142
-153 171 -175 14 -11 6 -1 -18 22 -24 23 -43 44 -43 47 0 3 77 6 170 6 l170 0
0 185 0 185 -197 2 -198 3 -3 188 c-1 110 -6 187 -12 187 -6 0 -11 -77 -12
-187z"/>
<path d="M2855 1531 c-11 -5 -36 -25 -55 -46 l-35 -36 0 -274 0 -275 43 -42
42 -43 150 -5 c123 -4 149 -3 145 8 -3 8 -5 20 -5 28 0 11 -26 14 -145 14
l-145 0 0 315 0 315 435 0 435 0 0 -315 0 -315 -45 0 c-43 0 -45 -1 -45 -30 0
-16 1 -30 3 -30 1 0 24 7 50 15 88 26 117 83 117 226 l0 99 220 0 c121 0 220
-3 220 -7 0 -5 -18 -28 -40 -52 -22 -25 -40 -47 -40 -50 1 -11 100 103 100
115 0 6 6 17 14 23 19 16 82 123 91 153 5 18 4 20 -4 8 -8 -11 -11 -1 -11 43
0 44 -3 57 -15 57 -12 0 -15 -16 -15 -86 0 -78 -3 -92 -27 -130 l-28 -44 -232
0 -233 0 0 108 c0 129 -9 166 -54 218 l-34 39 -418 2 c-231 1 -428 -2 -439 -6z"/>
<path d="M4410 1427 c-23 -45 -36 -75 -28 -67 20 19 82 139 76 145 -2 3 -24
-32 -48 -78z"/>
<path d="M470 1477 c0 -11 36 -80 65 -123 30 -44 34 -29 4 18 -12 18 -32 51
-45 73 -13 22 -24 36 -24 32z"/>
<path d="M1705 1384 c-16 -18 -25 -39 -25 -60 0 -31 3 -34 30 -34 29 0 30 2
30 45 l0 45 334 0 333 -1 5 -155 c3 -86 3 -166 1 -178 l-5 -23 -256 1 c-193 0
-257 -3 -260 -12 -3 -9 16 -12 67 -12 l71 0 0 -168 c0 -117 -4 -172 -12 -180
-16 -16 -828 -17 -861 -1 -39 19 45 -50 108 -88 33 -20 84 -52 113 -71 29 -19
55 -32 58 -29 3 2 -37 30 -88 60 -159 95 -187 86 268 87 394 0 401 0 420 21
17 18 20 42 24 193 l5 171 181 3 c177 2 182 3 208 27 26 24 26 25 26 179 l0
154 -31 26 -31 26 -344 0 -345 0 -24 -26z"/>
<path d="M1276 1193 c-11 -11 -6 -23 9 -23 8 0 15 4 15 9 0 13 -16 22 -24 14z"/>
<path d="M1327 1193 c-13 -12 -7 -23 13 -23 11 0 20 7 20 15 0 15 -21 21 -33
8z"/>
<path d="M4109 971 c-62 -63 -74 -87 -15 -31 39 37 77 84 64 79 -2 -1 -24 -22
-49 -48z"/>
<path d="M3985 842 c-38 -34 -90 -95 -73 -86 14 8 105 104 96 104 -1 -1 -12
-9 -23 -18z"/>
<path d="M1005 758 c17 -12 49 -40 73 -62 23 -21 44 -37 46 -35 6 5 -121 113
-137 117 -6 2 2 -7 18 -20z"/>
<path d="M3835 704 c-27 -25 -41 -41 -30 -36 19 10 94 82 84 82 -2 -1 -26 -21
-54 -46z"/>
<path d="M3720 619 c-59 -44 -85 -67 -60 -54 26 14 128 95 119 95 -2 0 -29
-18 -59 -41z"/>
<path d="M3605 546 c-38 -17 -140 -86 -127 -86 6 0 43 20 82 44 94 58 105 68
45 42z"/>
<path d="M1485 441 c6 -5 33 -19 60 -31 28 -12 46 -17 40 -12 -14 13 -113 56
-100 43z"/>
<path d="M3336 404 c-49 -24 -84 -44 -78 -44 15 0 182 78 182 85 0 9 -15 4
-104 -41z"/>
<path d="M1606 381 c5 -5 20 -12 34 -15 l25 -7 -25 15 c-28 17 -50 21 -34 7z"/>
<path d="M1710 347 c0 -9 247 -87 272 -86 13 0 1 6 -27 14 -44 11 -196 59
-232 72 -7 3 -13 3 -13 0z"/>
<path d="M3100 317 c-47 -16 -107 -35 -135 -42 -27 -7 -40 -13 -27 -14 20 -1
260 74 271 85 11 10 -31 -1 -109 -29z"/>
<path d="M2120 240 c63 -16 227 -30 349 -30 114 0 349 24 361 37 3 3 -15 3
-40 0 -175 -25 -336 -31 -483 -19 -83 7 -168 15 -187 17 l-35 4 35 -9z"/>
</g>
</svg>
