<svg xmlns="http://www.w3.org/2000/svg" xmlns:xlink="http://www.w3.org/1999/xlink" width="361.421" height="282.371" viewBox="0 0 361.421 282.371">
  <defs>
    <linearGradient id="linear-gradient" x1="0.5" y1="1" x2="0.5" gradientUnits="objectBoundingBox">
      <stop offset="0" stop-color="gray" stop-opacity="0.251"/>
      <stop offset="0.54" stop-color="gray" stop-opacity="0.122"/>
      <stop offset="1" stop-color="gray" stop-opacity="0.102"/>
    </linearGradient>
    <linearGradient id="linear-gradient-2" y1="1" y2="-0.001" xlink:href="#linear-gradient"/>
  </defs>
  <g id="illustration" transform="translate(13.421 -5)">
    <path id="Path_10161" data-name="Path 10161" d="M0,0H346V282H0Z" transform="translate(2 5)" fill="#fff"/>
    <g id="Group_18" data-name="Group 18" transform="translate(-13.421 5)">
      <path id="Path_2" data-name="Path 2" d="M328.168,136.038c-14.329,9.637-32.915,9.01-49.2,4s-31.247-13.943-47.108-20.29a158.142,158.142,0,0,0-41.391-10.365c-20.223-2.224-42.8.483-56.9,16.062-15.691,17.352-14.488,48.652,2.484,64.573,8.632,8.1,19.938,12.076,29.8,18.4s18.979,16.83,18.142,29.04c-.776,11.3-9.811,19.976-19.162,25.418-7.229,4.206-16.132,8.8-17,17.507-.84,8.429,6.643,15.035,13.79,18.79a81.1,81.1,0,0,0,75.268-.31c8.286-4.44,15.9-10.343,24.595-13.8,22.819-9.085,47.959.061,72.12,3.406a149.891,149.891,0,0,0,61.342-4.292c11.963-3.395,23.974-8.584,32.379-18.253,6.06-6.973,9.828-15.8,13.384-24.506q5.67-13.94,10.9-28.074c2.094-5.658,4.155-11.424,4.694-17.479.979-10.966-3.145-21.807-8.768-31.065-13.353-21.98-35.826-37.433-60.16-41.358s-50.087,3.748-68.964,20.517" transform="translate(-111.605 -90.514)" fill="#6c63ff" opacity="0.1"/>
      <ellipse id="Ellipse_3" data-name="Ellipse 3" cx="48.918" cy="9.565" rx="48.918" ry="9.565" transform="translate(0 263.242)" fill="#6c63ff" opacity="0.1"/>
      <ellipse id="Ellipse_4" data-name="Ellipse 4" cx="102.543" cy="9.565" rx="102.543" ry="9.565" transform="translate(79.642 243.266)" fill="#6c63ff" opacity="0.1"/>
      <path id="Path_3" data-name="Path 3" d="M824.35,461.679s14.376-25.465,36.038-32.795A44.316,44.316,0,0,0,882.829,412.1a74.677,74.677,0,0,0,6.624-11.918" transform="translate(-581.661 -276.947)" fill="none" stroke="#535461" stroke-miterlimit="10" stroke-width="2"/>
      <path id="Path_4" data-name="Path 4" d="M1017.958,368.144c-2.469,2.393-13.958,4.869-13.958,4.869s2.822-11.406,5.287-13.8a6.225,6.225,0,0,1,8.671,8.934Z" transform="translate(-696.568 -249.617)" fill="#6c63ff"/>
      <path id="Path_5" data-name="Path 5" d="M999.211,422.519c-3.373.667-14.361-3.5-14.361-3.5s8.566-8.044,11.936-8.714a6.227,6.227,0,1,1,2.426,12.215Z" transform="translate(-684.32 -283.346)" fill="#6c63ff"/>
      <path id="Path_6" data-name="Path 6" d="M940.131,485.019c-3.243-1.124-10.631-10.267-10.631-10.267s11.457-2.624,14.7-1.5a6.227,6.227,0,1,1-4.072,11.767Z" transform="translate(-648.917 -323.506)" fill="#6c63ff"/>
      <path id="Path_7" data-name="Path 7" d="M877.113,520.209c-3.391-.559-12.213-8.328-12.213-8.328s10.848-4.519,14.239-3.964a6.224,6.224,0,0,1-2.025,12.282Z" transform="translate(-603.441 -345.827)" fill="#6c63ff"/>
      <path id="Path_8" data-name="Path 8" d="M958.26,399.22c0,3.438,6.22,13.41,6.22,13.41s6.227-9.968,6.231-13.406a6.227,6.227,0,0,0-12.451,0Z" transform="translate(-667.312 -272.448)" fill="#6c63ff"/>
      <path id="Path_9" data-name="Path 9" d="M887.807,438.269c1.027,3.279,9.943,10.934,9.943,10.934s2.962-11.374,1.935-14.653a6.23,6.23,0,0,0-11.893,3.719Z" transform="translate(-618.049 -296.134)" fill="#6c63ff"/>
      <path id="Path_10" data-name="Path 10" d="M825.96,490.9c.458,3.409,7.957,12.458,7.957,12.458s4.84-10.707,4.382-14.116a6.225,6.225,0,0,0-12.34,1.658Z" transform="translate(-577.319 -330.46)" fill="#6c63ff"/>
      <path id="Path_11" data-name="Path 11" d="M1017.958,368.144c-2.469,2.393-13.958,4.869-13.958,4.869s2.822-11.406,5.287-13.8a6.225,6.225,0,0,1,8.671,8.934Z" transform="translate(-696.568 -249.617)" opacity="0.25"/>
      <path id="Path_12" data-name="Path 12" d="M999.211,422.519c-3.373.667-14.361-3.5-14.361-3.5s8.566-8.044,11.936-8.714a6.227,6.227,0,1,1,2.426,12.215Z" transform="translate(-684.32 -283.346)" opacity="0.25"/>
      <path id="Path_13" data-name="Path 13" d="M940.131,485.019c-3.243-1.124-10.631-10.267-10.631-10.267s11.457-2.624,14.7-1.5a6.227,6.227,0,1,1-4.072,11.767Z" transform="translate(-648.917 -323.506)" opacity="0.25"/>
      <path id="Path_14" data-name="Path 14" d="M877.113,520.209c-3.391-.559-12.213-8.328-12.213-8.328s10.848-4.519,14.239-3.964a6.224,6.224,0,0,1-2.025,12.282Z" transform="translate(-603.441 -345.827)" opacity="0.25"/>
      <path id="Path_15" data-name="Path 15" d="M958.26,399.22c0,3.438,6.22,13.41,6.22,13.41s6.227-9.968,6.231-13.406a6.227,6.227,0,0,0-12.451,0Z" transform="translate(-667.312 -272.448)" opacity="0.25"/>
      <path id="Path_16" data-name="Path 16" d="M887.807,438.269c1.027,3.279,9.943,10.934,9.943,10.934s2.962-11.374,1.935-14.653a6.23,6.23,0,0,0-11.893,3.719Z" transform="translate(-618.049 -296.134)" opacity="0.25"/>
      <path id="Path_17" data-name="Path 17" d="M825.96,490.9c.458,3.409,7.957,12.458,7.957,12.458s4.84-10.707,4.382-14.116a6.225,6.225,0,0,0-12.34,1.658Z" transform="translate(-577.319 -330.46)" opacity="0.25"/>
      <path id="Path_18" data-name="Path 18" d="M826.65,422.826s2.822-29.1,19.637-44.583A44.327,44.327,0,0,0,860,353.8a74.6,74.6,0,0,0,1.225-13.572" transform="translate(-578.871 -238.602)" fill="none" stroke="#535461" stroke-miterlimit="10" stroke-width="2"/>
      <path id="Path_19" data-name="Path 19" d="M930.6,298.219c-1.287,3.189-10.786,10.091-10.786,10.091s-2.047-11.572-.76-14.776a6.224,6.224,0,0,1,11.532,4.653Z" transform="translate(-641.965 -206.404)" fill="#6c63ff"/>
      <path id="Path_20" data-name="Path 20" d="M932.755,352.578c-2.811,1.978-14.545,2.624-14.545,2.624s4.573-10.811,7.384-12.8a6.224,6.224,0,1,1,7.161,10.181Z" transform="translate(-641.696 -239.263)" fill="#6c63ff"/>
      <path id="Path_21" data-name="Path 21" d="M899.028,433.885c-3.424.288-13.878-5.078-13.878-5.078s9.41-7.038,12.837-7.327a6.224,6.224,0,0,1,1.042,12.4Z" transform="translate(-616.845 -290.557)" fill="#6c63ff"/>
      <path id="Path_22" data-name="Path 22" d="M857.258,491.255c-3.326.861-14.538-2.66-14.538-2.66s8.087-8.53,11.413-9.392a6.225,6.225,0,1,1,3.125,12.051Z" transform="translate(-588.754 -327.363)" fill="#6c63ff"/>
      <path id="Path_23" data-name="Path 23" d="M882.93,352.569c1.395,3.143,11.121,9.73,11.121,9.73s1.654-11.633.263-14.776a6.226,6.226,0,0,0-11.384,5.045Z" transform="translate(-614.672 -240.898)" fill="#6c63ff"/>
      <path id="Path_24" data-name="Path 24" d="M834.47,417.089c2.27,2.58,13.525,5.964,13.525,5.964s-1.9-11.6-4.17-14.181a6.231,6.231,0,0,0-9.37,8.217Z" transform="translate(-582.072 -281.149)" fill="#6c63ff"/>
      <path id="Path_25" data-name="Path 25" d="M799.255,490.277c1.8,2.93,12.321,8.166,12.321,8.166s.087-11.752-1.712-14.682a6.225,6.225,0,1,0-10.61,6.516Z" transform="translate(-559.125 -328.509)" fill="#6c63ff"/>
      <path id="Path_26" data-name="Path 26" d="M281.84,0V254.236H464.7V0Z" transform="translate(-192.004)" fill="url(#linear-gradient)"/>
      <rect id="Rectangle_2" data-name="Rectangle 2" width="179.651" height="9.691" transform="translate(91.459 2.231)" fill="#f6f7f9"/>
      <g id="Group_2" data-name="Group 2" transform="translate(91.459 2.231)" opacity="0.2">
        <rect id="Rectangle_3" data-name="Rectangle 3" width="179.651" height="9.691" fill="#6c63ff"/>
      </g>
      <rect id="Rectangle_4" data-name="Rectangle 4" width="179.651" height="240.084" transform="translate(91.459 11.921)" fill="#f6f7f9"/>
      <circle id="Ellipse_5" data-name="Ellipse 5" cx="1.643" cy="1.643" r="1.643" transform="translate(100.057 5.431)" fill="#f6f7f9"/>
      <circle id="Ellipse_6" data-name="Ellipse 6" cx="1.643" cy="1.643" r="1.643" transform="translate(104.252 5.431)" fill="#f6f7f9"/>
      <circle id="Ellipse_7" data-name="Ellipse 7" cx="1.643" cy="1.643" r="1.643" transform="translate(108.446 5.431)" fill="#f6f7f9"/>
      <g id="Group_3" data-name="Group 3" transform="translate(123.814 26.722)" opacity="0.2">
        <rect id="Rectangle_5" data-name="Rectangle 5" width="115.521" height="4.523" fill="#6c63ff"/>
      </g>
      <rect id="Rectangle_6" data-name="Rectangle 6" width="15.349" height="4.523" transform="translate(221.205 26.722)" fill="#6c63ff"/>
      <g id="Group_4" data-name="Group 4" transform="translate(110.12 119.15)" opacity="0.2">
        <rect id="Rectangle_7" data-name="Rectangle 7" width="72.696" height="52.072" fill="#6c63ff" opacity="0.2"/>
      </g>
      <g id="Group_5" data-name="Group 5" transform="translate(110.12 51.603)" opacity="0.2">
        <rect id="Rectangle_8" data-name="Rectangle 8" width="72.696" height="52.072" fill="#6c63ff" opacity="0.2"/>
      </g>
      <g id="Group_6" data-name="Group 6" transform="translate(110.12 185.817)" opacity="0.2">
        <rect id="Rectangle_9" data-name="Rectangle 9" width="72.696" height="52.072" fill="#6c63ff" opacity="0.2"/>
      </g>
      <g id="Group_7" data-name="Group 7" transform="translate(180.582 119.15)" opacity="0.2">
        <rect id="Rectangle_10" data-name="Rectangle 10" width="72.696" height="52.072" fill="#6c63ff" opacity="0.2"/>
      </g>
      <g id="Group_8" data-name="Group 8" transform="translate(180.582 51.603)" opacity="0.2">
        <rect id="Rectangle_11" data-name="Rectangle 11" width="72.696" height="52.072" fill="#6c63ff" opacity="0.2"/>
      </g>
      <g id="Group_9" data-name="Group 9" transform="translate(180.582 185.817)" opacity="0.2">
        <rect id="Rectangle_12" data-name="Rectangle 12" width="72.696" height="52.072" fill="#6c63ff" opacity="0.2"/>
      </g>
      <path id="Path_27" data-name="Path 27" d="M1011.243,692.73s2.573,3.362-1.186,8.437-6.847,9.37-5.6,12.527c0,0,5.669-9.428,10.285-9.557S1016.321,698.4,1011.243,692.73Z" transform="translate(-696.68 -464.067)" fill="#3acc6c"/>
      <path id="Path_28" data-name="Path 28" d="M1011.5,692.73a4.142,4.142,0,0,1,.526,1.052c4.5,5.29,6.9,10.228,2.573,10.354-4.029.115-8.869,7.323-10.026,9.143a3.962,3.962,0,0,0,.137.414s5.669-9.428,10.285-9.557S1016.574,698.4,1011.5,692.73Z" transform="translate(-696.933 -464.067)" opacity="0.1"/>
      <path id="Path_29" data-name="Path 29" d="M1036,703.274c0,1.182-.133,2.141-.3,2.141s-.3-.959-.3-2.141.166-.627.332-.627S1036,702.088,1036,703.274Z" transform="translate(-716.659 -470.326)" fill="#ffd037"/>
      <path id="Path_30" data-name="Path 30" d="M1038.013,707.1c-1.038.566-1.946.908-2.022.764s.7-.721,1.737-1.287.631-.151.721,0S1039.051,706.545,1038.013,707.1Z" transform="translate(-717.027 -472.74)" fill="#ffd037"/>
      <path id="Path_31" data-name="Path 31" d="M975.862,692.73s-2.573,3.362,1.186,8.437,6.847,9.37,5.6,12.527c0,0-5.669-9.428-10.285-9.557S970.777,698.4,975.862,692.73Z" transform="translate(-674.878 -464.067)" fill="#3acc6c"/>
      <path id="Path_32" data-name="Path 32" d="M975.862,692.73a4.142,4.142,0,0,0-.526,1.052c-4.5,5.29-6.9,10.228-2.573,10.354,4.033.115,8.869,7.323,10.026,9.143a3.3,3.3,0,0,1-.137.414s-5.669-9.428-10.285-9.557S970.777,698.4,975.862,692.73Z" transform="translate(-674.878 -464.067)" opacity="0.1"/>
      <path id="Path_33" data-name="Path 33" d="M972.84,703.274c0,1.182.133,2.141.3,2.141s.3-.959.3-2.141-.166-.627-.328-.627S972.84,702.088,972.84,703.274Z" transform="translate(-676.638 -470.326)" fill="#ffd037"/>
      <path id="Path_34" data-name="Path 34" d="M967.151,707.1c1.042.566,1.946.908,2.025.764s-.7-.721-1.741-1.287-.631-.151-.721,0S966.114,706.545,967.151,707.1Z" transform="translate(-672.589 -472.74)" fill="#ffd037"/>
      <ellipse id="Ellipse_8" data-name="Ellipse 8" cx="26.885" cy="4.126" rx="26.885" ry="4.126" transform="translate(280.889 267.098)" fill="#6c63ff" opacity="0.1"/>
      <path id="Path_35" data-name="Path 35" d="M994.218,735.56l-.13,1.049-.18,1.485-.076.616-.18,1.485-.079.62-.18,1.481-2.058,16.866c-.184,1.506-2.642,2.678-5.611,2.678H975.035c-2.97,0-5.406-1.171-5.608-2.678l-2.061-16.873-.18-1.481-.076-.62-.184-1.485-.076-.616-.18-1.485-.13-1.049c-.1-.833,1.243-1.553,2.908-1.553h21.864C992.989,734,994.323,734.721,994.218,735.56Z" transform="translate(-672.605 -490.464)" fill="#65617d"/>
      <path id="Path_36" data-name="Path 36" d="M902.108,683.01l-.18,1.481H874.87l-.18-1.481Z" transform="translate(-580.625 -436.865)" fill="#9d9cb5"/>
      <path id="Path_37" data-name="Path 37" d="M902.306,688.84l-.18,1.485H875.584l-.184-1.485Z" transform="translate(-581.079 -440.594)" fill="#9d9cb5"/>
      <path id="Path_38" data-name="Path 38" d="M902.507,694.67l-.18,1.485H876.3l-.18-1.485Z" transform="translate(-581.54 -444.323)" fill="#9d9cb5"/>
      <path id="Path_92" data-name="Path 92" d="M515.49,489.38s.933,2.274,2.49,2.606S515.49,489.38,515.49,489.38Z" transform="translate(-371.838 -334.001)" opacity="0.1"/>
      <path id="Path_93" data-name="Path 93" d="M511.49,494.3s3.013,2.44,2.883,2.941" transform="translate(-369.197 -337.148)" opacity="0.1"/>
      <path id="Path_94" data-name="Path 94" d="M494.72,454.3s2.386,1.607,2.386,2.771" transform="translate(-358.106 -311.563)" opacity="0.1"/>
      <path id="Path_95" data-name="Path 95" d="M497.216,463.285a12.989,12.989,0,0,0-1.106-2.825" transform="translate(-358.995 -315.503)" opacity="0.1"/>
      <path id="Path_96" data-name="Path 96" d="M496.11,470.76a20.756,20.756,0,0,1,1.106,2.552" transform="translate(-358.995 -322.091)" opacity="0.1"/>
      <path id="Path_97" data-name="Path 97" d="M544.749,459.53s-3.1.944-2.829,2.108" transform="translate(-389.287 -314.908)" opacity="0.1"/>
      <path id="Path_98" data-name="Path 98" d="M541.91,481.209s4.065-4.714,2.843-4.6S541.91,481.209,541.91,481.209Z" transform="translate(-389.297 -325.829)" opacity="0.1"/>
      <g id="Group_12" data-name="Group 12" transform="translate(134.293 123.708)" opacity="0.1">
        <path id="Path_99" data-name="Path 99" d="M546.056,428.851c0-.973-.177-2.7-.2-4.631-.022,2.213.2,4.26.2,5.352a3.175,3.175,0,0,0,2.162,2.825v-.721A3.186,3.186,0,0,1,546.056,428.851Z" transform="translate(-525.515 -416.031)"/>
        <path id="Path_100" data-name="Path 100" d="M552.672,493.823a5.582,5.582,0,0,1,.1.573,3.6,3.6,0,0,0-.1-1.294c-.238-1.081-1.2-8.022-1.3-10.732A102.762,102.762,0,0,0,552.672,493.823Z" transform="translate(-529.036 -453.225)"/>
        <path id="Path_101" data-name="Path 101" d="M491.349,475.92a32.371,32.371,0,0,1,.328-5.406,31.349,31.349,0,0,0,.209-4.894,24.9,24.9,0,0,1-.209,4.173A38.686,38.686,0,0,0,491.349,475.92Z" transform="translate(-490.651 -442.511)"/>
        <path id="Path_102" data-name="Path 102" d="M495.829,402.95c2.548-1.33,2.494-.443,2.494-.443s2,9.759,6.537,9.7,5.622-9.7,5.622-9.7a9.038,9.038,0,0,0,2.328.44c.22-.169.959.36,1.366.62.076-.191.155-.378.245-.559,0,0-1.387-.951-1.611-.782a9.008,9.008,0,0,1-2.328-.44s-1.081,9.647-5.6,9.7-6.537-9.7-6.537-9.7.054-.887-2.494.443c0,0-1.128-.13-.814,1.114C495.212,402.878,495.829,402.95,495.829,402.95Z" transform="translate(-492.972 -401.497)"/>
        <path id="Path_103" data-name="Path 103" d="M489.773,506.194c.36-.133.458-2.6.436-3.964-.018,1.369-.144,3.132-.436,3.243s-.432.721-.321,1.308C489.51,506.472,489.625,506.245,489.773,506.194Z" transform="translate(-489.414 -465.927)"/>
        <path id="Path_104" data-name="Path 104" d="M493.628,430.9a3.1,3.1,0,0,0,.169-1.481,1.9,1.9,0,0,1-.169.76c-.667,1.164-.335,4.325-3.218,4.937l.173.678C493.279,435.1,492.976,432.044,493.628,430.9Z" transform="translate(-490.051 -419.357)"/>
      </g>
      <path id="Path_105" data-name="Path 105" d="M501.63,587.789l.036-.249.274-1.921Z" transform="translate(-362.984 -395.558)" fill="#6c63ff"/>
      <path id="Path_108" data-name="Path 108" d="M535.18,611.6" transform="translate(-384.773 -412.175)" fill="none" stroke="#6c63ff" stroke-miterlimit="10" stroke-width="1"/>
      <path id="Path_110" data-name="Path 110" d="M502.489,596.8s-.432.249,0,1.442" transform="translate(-363.06 -402.708)" opacity="0.1"/>
      <path id="Path_111" data-name="Path 111" d="M505.35,596.8s-1.178.742,0,1.986" transform="translate(-364.739 -402.708)" opacity="0.1"/>
      <path id="Path_112" data-name="Path 112" d="M536.9,596.8s1.611,1.55,1.24,1.986" transform="translate(-385.942 -402.708)" opacity="0.1"/>
      <path id="Path_113" data-name="Path 113" d="M540.5,595.77s.252,1.86,1.182,2.357" transform="translate(-388.317 -402.05)" opacity="0.1"/>
      <path id="Path_131" data-name="Path 131" d="M207.621,394.149l.018-.025-.032-.025h0l-.195-.13.04.029a.645.645,0,0,0-.851.187l-.079.112h0l-4.379,6.3-.764,1.121c-2.31-.7-6.062,2.231-7.961,3.91-.119.1-.231.2-.332.3-.151-.339-.241-.555-.241-.555-.094,1.031-3.734,2.577-4.584,3.139a3.064,3.064,0,0,1-1.269.425c.123-3.917-2.908-8.04-2.908-8.04l-7.406-9.424a8.318,8.318,0,0,1,.757-5c.061-.123.123-.245.191-.36h.036a8.2,8.2,0,0,0-.465,2.461c.018.638.609,3.73,1.442,3.6a.454.454,0,0,0,.425-.2,5.028,5.028,0,0,0,.688-3.3,6.757,6.757,0,0,1-.119,1.063c.054-1.009-.061-2.076-.061-2.836,0-.3,0-.6.022-.9h.09v0h.094a9.95,9.95,0,0,0,4.523-2.1,2.425,2.425,0,0,0,1.7-.8,1.654,1.654,0,0,1-.321,1.542,2.691,2.691,0,0,0,2.213-1.723,6.011,6.011,0,0,0,.281-2.883,20.033,20.033,0,0,1-.213-2.93,10.776,10.776,0,0,0,.086-1.6,3.077,3.077,0,0,0-.087-.483h.029a.721.721,0,0,0,.515-.2,2.4,2.4,0,0,0,.649-1.413,12.029,12.029,0,0,0,.382-3.355c-.022.342-.065.688-.115,1.031a4.533,4.533,0,0,0-.948-3.5,6.909,6.909,0,0,0-2.209-1.4,1.618,1.618,0,0,1-.721-.515,2.087,2.087,0,0,1-.223-.894c-.277-1.9-2.061-3.215-3.838-3.964-2.285-.995-5.045-1.42-7.226-.238a22.923,22.923,0,0,0-2.883,2.2c-1.218.926-2.624,1.575-3.925,2.382a7.861,7.861,0,0,0-3.161,3.222c-.955,2.162-.238,4.613-.119,6.959a11.326,11.326,0,0,1-4.343,9.73,3.9,3.9,0,0,0-.955.825,1.031,1.031,0,0,0-.079,1.178c.155.2.4.317.569.508a1.615,1.615,0,0,1,.141,1.481,9.287,9.287,0,0,1-2.523,4.274c.054.382.526.533.912.591a21,21,0,0,0,3.081.223h.443c-.047.119-.1.245-.148.378-.559,1.47-1.283,3.734-1.042,5.117.36,2.184,1.514,12.17.944,13.922s.915,14.451.915,14.451.2.98.541,2.443c-.89,2.1-1.906,4.426-2.415,5.359-1.023,1.87-.519,11.421,3.009,15.666,0,0,1.442,2.061,1.081,2.807a3.515,3.515,0,0,0,.065,2.061l.559,12.358a32.034,32.034,0,0,1-.259,3.777c-1.506,1.863-3.827,4.58-4.919,5.024-1.69.688-14.3,15.979-14.3,15.979s.1.184.3.483l-.36.411-2.418,2.8-.191.22c-.454-.086-3.478-.634-5.874-.807h-.238v-.043a8.966,8.966,0,0,0-2.523.068.811.811,0,0,0-.418.216c-.818,1-1.258,16.729-1.258,16.729s.872,7.874,3.6,8.314a1.443,1.443,0,0,0,.432.079h.119a3.763,3.763,0,0,0,3.243-2.022,3.131,3.131,0,0,0,.27-.721,5.807,5.807,0,0,1,.533-3.337c.851-1.935,2.44-5.341,2.44-5.341s2.883-3.031,2.368-4.5c.079-.119.173-.249.274-.4,1.081-1.542,3.272-4.588,5.045-6.62a5.234,5.234,0,0,1,.36-.389,8.85,8.85,0,0,0,2.011.58,7.319,7.319,0,0,0,3.716-3.431c.429-1.009,2.112-2.8,3.9-4.516l-.058.458-.061,15.042a10.753,10.753,0,0,0,1.852,1.02v.36a48.29,48.29,0,0,1-.389,6.411l-.054.335c-.223-.159-.418-.213-.541-.09-.555.562-.9,4.152-.933,5.806v.166c-.09,1.651-1.031,4.051,1.8,4.173,2.119.09,11.255.227,16.142.3a10.866,10.866,0,0,0,7.208-2.555c1.553-1.33,2.494-2.912.378-4.076-.13-.072-.267-.141-.418-.209l-4.685-.721-8-4.087s-.047-2.472-1.009-2.061a2.7,2.7,0,0,0-.811.321c-.047-.09-.1-.187-.144-.288a9.208,9.208,0,0,1-.987-4.166,2.944,2.944,0,0,1,.018-.4,7.96,7.96,0,0,0,.663-.681s-.061-5.618.569-6.678,2.584-11.8,2.584-11.8a5.087,5.087,0,0,1,1.323-3.182c1.261-1.186.818-4.62.818-4.62s1.766-.937,2.332-3.993,2.4-9.73,2.4-9.73,3.78-9.864,3.532-16.1a47.119,47.119,0,0,1,.36-9.489l.786-14.5v-.223c.314.238.526.432.526.432V426.3c.115.1.18.159.18.159s.4-6.581.267-9.19c2.206-.75,5.564-1.982,5.766-2.609.281-.933,4.065-3.885,4.065-3.885a.627.627,0,0,1-.231-.086c.119-.054.241-.119.36-.187,2.479-1.326,7.085-5.2,6.31-7.568l5.045-7.24A1.229,1.229,0,0,0,207.621,394.149Z" transform="translate(-117.965 -251.16)" fill="url(#linear-gradient-2)"/>
      <path id="Path_132" data-name="Path 132" d="M301.17,487.872a3.286,3.286,0,0,1-1.207.458c-1.575.047-2.883-4.216-2.883-4.216s.447-.454,1.16-1.081c2.112-1.878,6.541-5.344,8.617-3.406C309.2,481.792,303.9,486.405,301.17,487.872Z" transform="translate(-227.644 -327.397)" fill="#ecb4b6"/>
      <path id="Path_133" data-name="Path 133" d="M223.765,769.808l-5.813,6.274s-5.377.061-4.325-2.9a10.845,10.845,0,0,0,.447-1.975,48.525,48.525,0,0,0,.378-6.35c0-1.391-.022-2.368-.022-2.368s8.465-3.708,7.6.155a7.263,7.263,0,0,0-.173,1.47,9.2,9.2,0,0,0,.966,4.126A9.339,9.339,0,0,0,223.765,769.808Z" transform="translate(-169.787 -507.658)" fill="#ecb4b6"/>
      <path id="Path_134" data-name="Path 134" d="M223.765,782.861l-5.813,6.274s-5.377.061-4.325-2.9a10.845,10.845,0,0,0,.447-1.975,12.393,12.393,0,0,1,1.87,2.346s3.708,1.081,4.728-2.162a5.505,5.505,0,0,1,2.162-3.15A9.34,9.34,0,0,0,223.765,782.861Z" transform="translate(-169.787 -520.711)" opacity="0.1"/>
      <path id="Path_135" data-name="Path 135" d="M235.239,792.153a10.574,10.574,0,0,1-7.078,2.523c-4.793-.068-13.749-.209-15.828-.3-2.782-.123-1.86-2.5-1.769-4.134v-.162c.032-1.64.36-5.193.915-5.748s2.454,2.472,2.454,2.472,3.708,1.081,4.728-2.162,3.092-3.557,3.092-3.557c.941-.407.987,2.04.987,2.04l7.849,4.047,4.606.721c.148.068.281.137.407.205C237.686,789.27,236.763,790.834,235.239,792.153Z" transform="translate(-167.775 -520.553)" fill="#c17174"/>
      <circle id="Ellipse_13" data-name="Ellipse 13" cx="0.339" cy="0.339" r="0.339" transform="translate(52.623 264.683)" fill="#fff" opacity="0.25"/>
      <circle id="Ellipse_14" data-name="Ellipse 14" cx="0.339" cy="0.339" r="0.339" transform="translate(55.809 266.262)" fill="#fff" opacity="0.25"/>
      <circle id="Ellipse_15" data-name="Ellipse 15" cx="0.339" cy="0.339" r="0.339" transform="translate(57.445 266.993)" fill="#fff" opacity="0.25"/>
      <circle id="Ellipse_16" data-name="Ellipse 16" cx="0.339" cy="0.339" r="0.339" transform="translate(60.843 268.298)" fill="#fff" opacity="0.25"/>
      <circle id="Ellipse_17" data-name="Ellipse 17" cx="0.339" cy="0.339" r="0.339" transform="translate(59.114 267.743)" fill="#fff" opacity="0.25"/>
      <path id="Path_136" data-name="Path 136" d="M235.239,804.7a10.573,10.573,0,0,1-7.078,2.523c-4.793-.068-13.749-.209-15.828-.3-2.782-.122-1.86-2.5-1.769-4.134l17.468,1.081s7.154-1.081,7.568-3.215C237.686,801.817,236.763,803.381,235.239,804.7Z" transform="translate(-167.775 -533.101)" fill="#c17174"/>
      <path id="Path_137" data-name="Path 137" d="M235.239,804.7a10.573,10.573,0,0,1-7.078,2.523c-4.793-.068-13.749-.209-15.828-.3-2.782-.122-1.86-2.5-1.769-4.134l17.468,1.081s7.154-1.081,7.568-3.215C237.686,801.817,236.763,803.381,235.239,804.7Z" transform="translate(-167.775 -533.101)" fill="#fff" opacity="0.25"/>
      <path id="Path_138" data-name="Path 138" d="M167.641,734.628a12.06,12.06,0,0,0-1.751,1.759c-1.733,2.011-3.878,5.045-4.941,6.552-.411.591-.66.962-.66.962l-2.321-.342s-2.5-3.831-2.469-3.921,1.982-4.206,1.982-4.206l.753-.883,2.375-2.775,1.081-1.254S169.735,733.115,167.641,734.628Z" transform="translate(-132.694 -488.238)" fill="#ecb4b6"/>
      <path id="Path_139" data-name="Path 139" d="M160.948,750.1c-.411.591-.66.962-.66.962l-2.321-.342s-2.5-3.831-2.469-3.921,1.982-4.213,1.982-4.213l.753-.883.245.047h.591c-2.072,2.162.151,6.919.151,6.919A2.527,2.527,0,0,1,160.948,750.1Z" transform="translate(-132.694 -495.389)" opacity="0.1"/>
      <path id="Path_140" data-name="Path 140" d="M145.329,753.787s-1.546,3.337-2.382,5.254a5.8,5.8,0,0,0-.526,3.3,3.243,3.243,0,0,1-.263.721,3.64,3.64,0,0,1-3.164,2h-.151c-2.818-.072-3.712-8.253-3.712-8.253s.432-15.572,1.236-16.578a.771.771,0,0,1,.407-.216,8.647,8.647,0,0,1,2.483-.068c2.548.184,5.824.811,5.824.811h.587c-2.072,2.162.151,6.923.151,6.923a2.547,2.547,0,0,1,1.762,1.481C148.352,750.562,145.329,753.787,145.329,753.787Z" transform="translate(-119.666 -494.236)" fill="#c17174"/>
      <circle id="Ellipse_18" data-name="Ellipse 18" cx="0.339" cy="0.339" r="0.339" transform="translate(21.922 254.578)" fill="#fff" opacity="0.25"/>
      <circle id="Ellipse_19" data-name="Ellipse 19" cx="0.339" cy="0.339" r="0.339" transform="translate(21.753 257.277)" fill="#fff" opacity="0.25"/>
      <path id="Path_141" data-name="Path 141" d="M141.527,762.877a3.64,3.64,0,0,1-3.164,2h-.148c-2.818-.072-3.716-8.253-3.716-8.253s.432-15.572,1.236-16.578a.771.771,0,0,1,.407-.216,8.647,8.647,0,0,1,2.483-.068c-.047,2.8-.18,11.648,0,12.527S140.4,760.531,141.527,762.877Z" transform="translate(-119.263 -494.114)" fill="#c17174"/>
      <path id="Path_142" data-name="Path 142" d="M141.527,762.877a3.64,3.64,0,0,1-3.164,2h-.148c-2.818-.072-3.716-8.253-3.716-8.253s.432-15.572,1.236-16.578a.771.771,0,0,1,.407-.216,8.647,8.647,0,0,1,2.483-.068c-.047,2.8-.18,11.648,0,12.527S140.4,760.531,141.527,762.877Z" transform="translate(-119.263 -494.114)" fill="#fff" opacity="0.25"/>
      <path id="Path_143" data-name="Path 143" d="M138.206,765.127c-2.818-.072-3.716-8.253-3.716-8.253s.432-15.572,1.236-16.578a.771.771,0,0,1,.407-.216c.591.879,1.11,2.825.641,7.107-.879,8.112.18,8.624.18,8.624S138.278,762.7,138.206,765.127Z" transform="translate(-119.257 -494.353)" fill="#c17174"/>
      <path id="Path_144" data-name="Path 144" d="M138.206,765.127c-2.818-.072-3.716-8.253-3.716-8.253s.432-15.572,1.236-16.578a.771.771,0,0,1,.407-.216c.591.879,1.11,2.825.641,7.107-.879,8.112.18,8.624.18,8.624S138.278,762.7,138.206,765.127Z" transform="translate(-119.257 -494.353)" opacity="0.1"/>
      <path id="Path_145" data-name="Path 145" d="M301.17,494.93a3.287,3.287,0,0,1-1.207.458c-1.575.047-2.883-4.216-2.883-4.216s.447-.454,1.16-1.081C298.756,491.243,300.176,494.353,301.17,494.93Z" transform="translate(-227.568 -334.455)" opacity="0.1"/>
      <path id="Path_146" data-name="Path 146" d="M277.672,492.928a3.963,3.963,0,0,0,2.13-.461c.832-.555,4.4-2.087,4.5-3.107,0,0,2.13,5.19,3.337,5.377,0,0-3.708,2.919-3.986,3.845s-7.51,3.2-7.51,3.2Z" transform="translate(-213.814 -333.988)" fill="#ff748e"/>
      <path id="Path_147" data-name="Path 147" d="M277.672,492.928a3.963,3.963,0,0,0,2.13-.461c.832-.555,4.4-2.087,4.5-3.107,0,0,2.13,5.19,3.337,5.377,0,0-3.708,2.919-3.986,3.845s-7.51,3.2-7.51,3.2Z" transform="translate(-213.814 -333.988)" opacity="0.1"/>
      <path id="Path_148" data-name="Path 148" d="M176.7,734.628a12.06,12.06,0,0,0-1.751,1.759,12.5,12.5,0,0,1-5.283-4.613l1.081-1.254S178.8,733.115,176.7,734.628Z" transform="translate(-141.758 -488.238)" opacity="0.1"/>
      <path id="Path_149" data-name="Path 149" d="M190.027,669s-4.534,6.058-6.191,6.739S169.82,691.56,169.82,691.56s2.656,4.883,7.539,5.683a7.214,7.214,0,0,0,3.647-3.4c.991-2.35,8.775-8.988,8.775-8.988Z" transform="translate(-141.854 -448.889)" fill="#5e5a6b"/>
      <path id="Path_150" data-name="Path 150" d="M190.027,669s-4.534,6.058-6.191,6.739S169.82,691.56,169.82,691.56s2.656,4.883,7.539,5.683a7.214,7.214,0,0,0,3.647-3.4c.991-2.35,8.775-8.988,8.775-8.988Z" transform="translate(-141.854 -448.889)" opacity="0.1"/>
      <path id="Path_151" data-name="Path 151" d="M187.78,725.2a19.764,19.764,0,0,0,4.126,0C194.346,724.97,192.508,726.455,187.78,725.2Z" transform="translate(-153.342 -484.822)" opacity="0.1"/>
      <path id="Path_152" data-name="Path 152" d="M184.69,729.62s3.243,1.852,4.5.926S187.98,731.44,184.69,729.62Z" transform="translate(-151.365 -487.662)" opacity="0.1"/>
      <path id="Path_153" data-name="Path 153" d="M223.72,762.628a7.263,7.263,0,0,0-.173,1.47c-2.5,2.274-5.521,1.571-7.406.742,0-1.391-.022-2.368-.022-2.368S224.585,758.75,223.72,762.628Z" transform="translate(-171.469 -507.646)" opacity="0.1"/>
      <path id="Path_154" data-name="Path 154" d="M234.013,541.225l-.09,1.708-.771,14.361a45.146,45.146,0,0,0-.36,9.392c.259,6.177-3.474,15.965-3.474,15.965s-1.8,6.613-2.35,9.64-2.285,3.964-2.285,3.964.432,3.4-.8,4.573a5.072,5.072,0,0,0-1.3,3.15s-1.917,10.631-2.523,11.684-.559,6.613-.559,6.613c-4.015,4.757-9.885.432-9.885.432l.061-14.895s1.669-13.72,2.9-15.637,1.236-7.168,1.236-7.168l-.551-12.253a3.3,3.3,0,0,1-.061-2.04c.378-.742-1.056-2.779-1.056-2.779-3.463-4.206-3.964-13.662-2.952-15.5s4.007-9.269,4.007-9.269l4.134-2.411,7.471.22Z" transform="translate(-166.744 -366.864)" fill="#5e5a6b"/>
      <path id="Path_155" data-name="Path 155" d="M230.1,744.15s.977,3.384,1.762,3.755S230.1,744.15,230.1,744.15Z" transform="translate(-180.41 -496.956)" opacity="0.1"/>
      <path id="Path_156" data-name="Path 156" d="M233.83,712.9s2.523,2,3.6,1.993S233.83,712.9,233.83,712.9Z" transform="translate(-182.796 -476.968)" opacity="0.1"/>
      <path id="Path_157" data-name="Path 157" d="M240.929,438.129v4.08l-2.692-1.16-2.685-1.157-5.845-5.748a44.255,44.255,0,0,1-7.1-5.737c-1.413-1.56-2.123-3.034-.879-3.813a7.749,7.749,0,0,0,1.618-1.416,26.6,26.6,0,0,0,3.222-4.757c.04-.068.079-.137.115-.205,1.2-2.209,2-4.094,2-4.094a24.359,24.359,0,0,1,5.564,2.624c.177.122.342.249.5.378,1.214.995,1.82,2.162.7,3.3a8.649,8.649,0,0,0-.8.951h0a7.8,7.8,0,0,0-.5.778c-.065.122-.13.241-.187.36a8.311,8.311,0,0,0-.742,4.948Z" transform="translate(-174.647 -285.863)" fill="#ecb4b6"/>
      <path id="Path_158" data-name="Path 158" d="M274.493,395.824c.141.245.335.454.465.7a3.377,3.377,0,0,1,.205,1.73,9.838,9.838,0,0,0,.18,2.761,12.862,12.862,0,0,1,.577,2.436,6.391,6.391,0,0,1-1.164,3.29,2.368,2.368,0,0,0,1.694-.789,1.643,1.643,0,0,1-.31,1.524,2.62,2.62,0,0,0,2.162-1.7,5.942,5.942,0,0,0,.278-2.883,19.674,19.674,0,0,1-.209-2.9,10.6,10.6,0,0,0,.083-1.582A5.739,5.739,0,0,0,277.1,395.6l-1.254-1.723a.887.887,0,0,0-.36-.328C274.3,393.042,274.161,395.226,274.493,395.824Z" transform="translate(-208.705 -272.656)" fill="#464353"/>
      <path id="Path_159" data-name="Path 159" d="M245.24,420.41a8.653,8.653,0,0,0-.8.951h0a7.814,7.814,0,0,0-.5.778c-.065.123-.13.241-.187.36a9.73,9.73,0,0,1-7.283-3.935c-.04-.054-.079-.108-.115-.166.04-.068.079-.137.115-.205,1.2-2.209,2-4.094,2-4.094a24.36,24.36,0,0,1,5.564,2.624c.177.123.342.249.5.378C245.741,418.1,246.346,419.257,245.24,420.41Z" transform="translate(-184.414 -285.85)" opacity="0.1"/>
      <path id="Path_160" data-name="Path 160" d="M250.834,392.182a9.731,9.731,0,0,1-7.97,9.572,9.844,9.844,0,0,1-1.764.158h-.36a9.73,9.73,0,1,1,10.091-9.73Z" transform="translate(-181.223 -265.612)" fill="#ecb4b6"/>
      <path id="Path_161" data-name="Path 161" d="M255.571,460.184s4.9,2.764,3.647.432l-6.4-9.456h0l7.262,9.33s4.635,6.368,2.1,10.754c0,0-.36,3.647.061,4.512s-.122,10.091-.122,10.091-1.733-1.607-2.66-1.3S252,485.4,252,485.4Z" transform="translate(-194.418 -309.555)" opacity="0.1"/>
      <path id="Path_162" data-name="Path 162" d="M261.994,541.564l-.09,1.708c-.587-.425-1.405-.9-1.95-.721-.926.31-7.474.869-7.474.869l.3-2.13Z" transform="translate(-194.725 -367.203)" opacity="0.1"/>
      <path id="Path_163" data-name="Path 163" d="M256.062,460.184s4.9,2.764,3.647.432l-6.4-9.456h0l7.262,9.33s4.635,6.368,2.1,10.754c0,0-.36,3.647.061,4.512s-.123,10.091-.123,10.091-1.73-1.607-2.656-1.3-7.478.868-7.478.868Z" transform="translate(-194.725 -309.555)" fill="#464353"/>
      <path id="Path_164" data-name="Path 164" d="M232.163,457.619a33.759,33.759,0,0,1-1.506,6.508s-.865,8.775-1.986,11.385-.62,6.181-1.236,12.794a8.37,8.37,0,0,1-2.025,5.121,7.591,7.591,0,0,1-6.047,2.083l-.454-.036c-3.092-.306-6.058-15.2-6.058-15.2s-1.42-12.671-.865-14.415-.548-11.608-.919-13.77c-.238-1.373.472-3.6,1.02-5.067.321-.843.584-1.442.584-1.442a14.932,14.932,0,0,1,2.782-5.067,2.552,2.552,0,0,1,1.834-.771,4.587,4.587,0,0,1,2.288.721.639.639,0,0,1,.079.054s11.251,11.5,12.3,14.152A6.8,6.8,0,0,1,232.163,457.619Z" transform="translate(-168.206 -302.25)" opacity="0.1"/>
      <path id="Path_165" data-name="Path 165" d="M231.137,457.121a33.943,33.943,0,0,1-1.51,6.5s-.865,8.779-1.978,11.374-.616,6.181-1.236,12.794a8.389,8.389,0,0,1-2.025,5.121A7.6,7.6,0,0,1,218.339,495l-.454-.036c-3.092-.31-6.058-15.2-6.058-15.2s-1.42-12.667-.865-14.4-.555-11.619-.926-13.785c-.238-1.369.472-3.6,1.02-5.067.321-.843.584-1.423.584-1.423a14.931,14.931,0,0,1,2.782-5.067,2.523,2.523,0,0,1,1.834-.768,4.512,4.512,0,0,1,2.288.721l.079.05s11.251,11.5,12.3,14.152A6.655,6.655,0,0,1,231.137,457.121Z" transform="translate(-167.547 -301.937)" fill="#ff748e"/>
      <path id="Path_166" data-name="Path 166" d="M227.4,614.38s-2.552,2.27-3.431,2.162S227.4,614.38,227.4,614.38Z" transform="translate(-176.414 -413.953)" opacity="0.1"/>
      <path id="Path_167" data-name="Path 167" d="M229.158,620.367a36.563,36.563,0,0,1-3.492,1.442C224.862,622,228.12,620.046,229.158,620.367Z" transform="translate(-177.494 -417.759)" opacity="0.1"/>
      <path id="Path_168" data-name="Path 168" d="M264.44,525.656s3.986.047,4.588,1.3S265.723,525.145,264.44,525.656Z" transform="translate(-202.375 -357.167)" opacity="0.1"/>
      <path id="Path_169" data-name="Path 169" d="M262.89,531.8s3.06.649,3.986,1.391S262.89,531.8,262.89,531.8Z" transform="translate(-201.383 -361.133)" opacity="0.1"/>
      <path id="Path_170" data-name="Path 170" d="M244.914,510.84s-.36,12.559-1.737,14.185S244.914,510.84,244.914,510.84Z" transform="translate(-188.55 -347.727)" opacity="0.1"/>
      <path id="Path_171" data-name="Path 171" d="M237.968,607.851s-2.559,11.078,2.573,11.763S244.087,607,244.087,607Z" transform="translate(-185.035 -409.233)" opacity="0.1"/>
      <path id="Path_172" data-name="Path 172" d="M237.458,607.353s-2.544,11.078,2.577,11.77,3.543-12.613,3.543-12.613Z" transform="translate(-184.713 -408.919)" fill="#ecb4b6"/>
      <path id="Path_173" data-name="Path 173" d="M239,391.116a3.751,3.751,0,0,1-.36-.674c-.681-1.42-2.433-.721-3.716-.047l-.685.883a5.5,5.5,0,0,0-.782,1.207,9.132,9.132,0,0,0-.328,1.081c-.177.627-.436,1.225-.67,1.838a21.366,21.366,0,0,0-1.366,6.357,9.841,9.841,0,0,1-1.766.159h-.043v-.043c.065-.245.119-.494.169-.742h0a12.858,12.858,0,0,0,.1-4.253v-.094c-.047-.314-.108-.631-.133-.944-.119.216-.234.436-.36.659-.775,1.442-1.589,2.883-3.052,3.514a6.261,6.261,0,0,1-1.856.418,10.587,10.587,0,0,0-2.321.386,1.442,1.442,0,0,0-.674.407,1.989,1.989,0,0,0-.339,1.016,8.19,8.19,0,0,1-.36,1.409,12.354,12.354,0,0,1-3.027,4.512l-.335.324a6.275,6.275,0,0,1-2,1.387,6.126,6.126,0,0,1-2.123.317c.321-.843.584-1.424.584-1.424a14.931,14.931,0,0,1,2.782-5.067,2.523,2.523,0,0,1,1.834-.768,27.219,27.219,0,0,0,3.337-4.962,9.73,9.73,0,1,1,17.5-6.847Z" transform="translate(-169.454 -265.62)" opacity="0.1"/>
      <path id="Path_174" data-name="Path 174" d="M232.16,371.772A6.64,6.64,0,0,0,230,370.385a1.647,1.647,0,0,1-.7-.512,2.14,2.14,0,0,1-.216-.883c-.27-1.881-2.022-3.182-3.762-3.946-2.242-.984-4.934-1.405-7.085-.238a22.985,22.985,0,0,0-2.815,2.184c-1.2.915-2.573,1.557-3.849,2.357a7.561,7.561,0,0,0-3.1,3.193c-.937,2.126-.234,4.566-.115,6.887a11.325,11.325,0,0,1-4.26,9.651,3.719,3.719,0,0,0-.937.818,1.027,1.027,0,0,0-.076,1.164c.148.2.393.317.555.5a1.6,1.6,0,0,1,.137,1.47,9.2,9.2,0,0,1-2.472,4.227c.05.382.512.53.89.587a20.214,20.214,0,0,0,3.024.22,5.081,5.081,0,0,0,4.227-1.7,11.479,11.479,0,0,0,3.734-6.245,2.058,2.058,0,0,1,.339-1.016,1.524,1.524,0,0,1,.674-.407c1.344-.461,2.883-.234,4.177-.8,1.687-.721,2.523-2.523,3.406-4.173.029.314.086.631.137.948a12.816,12.816,0,0,1-.252,5.089,10.561,10.561,0,0,0-.566,2.847c.018.721.75,4.487,1.712,3.359s.609-3.622.609-5.02a21.46,21.46,0,0,1,1.416-7.658c.231-.609.494-1.211.67-1.838a9.843,9.843,0,0,1,.324-1.081,5.646,5.646,0,0,1,.786-1.207l.688-.883c1.283-.681,3.034-1.373,3.716.047.259.544.4,1.146,1.081.616a2.421,2.421,0,0,0,.634-1.4C233.154,375.574,233.507,373.264,232.16,371.772Z" transform="translate(-161.989 -253.87)" fill="#464353"/>
      <path id="Path_175" data-name="Path 175" d="M228.141,469.514c-.263-6.656-9.579-8.033-11.752-1.737a.913.913,0,0,0-.043.13c-1.424,4.263-.8,15.06-.8,15.06s.184,7.251.865,9.662S219,501.96,219,503.081s1.777,5.377,2.523,5.687,1.124,2.717,1.308,3.15.721,6.058.721,6.058,6.984-.432,7.107-1.546-1.546-6.552-1.546-6.552a12.607,12.607,0,0,1-1.387-4.015c-.159-1.791-1.124-2.606-.933-3.842s-.559-1.852-.559-2.656a19.77,19.77,0,0,0-.555-2.966s-1.175-.93-.987-2.04-1.669-3.337-1.175-4.141a8.362,8.362,0,0,0,.616-2.782s.62-8.9,1.052-11.309,2.966-6.3,2.966-6.3S228.148,469.713,228.141,469.514Z" transform="translate(-171.013 -317.588)" opacity="0.1"/>
      <path id="Path_176" data-name="Path 176" d="M226.541,508.23a7.6,7.6,0,0,1-6.047,2.083c-.223-.843-.548-1.881-1.02-2.076-.75-.31-2.523-4.573-2.523-5.683s-1.914-8.037-2.595-10.451-.865-9.658-.865-9.658-.62-10.812.8-15.064a.375.375,0,0,1,.043-.126c2.162-6.3,11.489-4.919,11.752,1.737v.306s-2.523,3.892-2.966,6.3-1.045,11.309-1.045,11.309a8.4,8.4,0,0,1-.62,2.782c-.494.8,1.359,3.031,1.175,4.141a2.539,2.539,0,0,0,.987,2.04,19.746,19.746,0,0,1,.555,2.97c0,.807.742,1.42.559,2.656s.8,2.04.962,3.831A9.99,9.99,0,0,0,226.541,508.23Z" transform="translate(-169.701 -317.252)" opacity="0.1"/>
      <path id="Path_177" data-name="Path 177" d="M227.111,469c-.263-6.656-9.579-8.033-11.752-1.737l-.043.126c-1.424,4.267-.8,15.064-.8,15.064s.184,7.247.865,9.658,2.595,9.334,2.595,10.451,1.777,5.377,2.523,5.687,1.124,2.721,1.308,3.153.721,6.054.721,6.054,6.984-.432,7.107-1.542-1.542-6.552-1.542-6.552a12.611,12.611,0,0,1-1.391-4.018c-.159-1.791-1.146-2.595-.959-3.831s-.559-1.856-.559-2.66a19.772,19.772,0,0,0-.555-2.966,2.521,2.521,0,0,1-.987-2.04c.187-1.114-1.669-3.337-1.175-4.141a8.347,8.347,0,0,0,.616-2.779s.62-8.9,1.052-11.312,2.966-6.3,2.966-6.3A1.57,1.57,0,0,0,227.111,469Z" transform="translate(-170.354 -317.262)" fill="#ff748e"/>
      <path id="Path_178" data-name="Path 178" d="M217.88,521.486c.184-.187,3.708-4.08,4.818-2.688S217.88,521.486,217.88,521.486Z" transform="translate(-172.594 -352.625)" opacity="0.1"/>
      <path id="Path_179" data-name="Path 179" d="M218.78,530.424c.137-.141,3.521-.278,4.357-2.162S218.78,530.424,218.78,530.424Z" transform="translate(-173.17 -358.55)" opacity="0.1"/>
      <g id="Group_14" data-name="Group 14" transform="translate(39.415 120.346)" opacity="0.1">
        <path id="Path_180" data-name="Path 180" d="M206.824,437.681a.955.955,0,0,1,.184.335,1.442,1.442,0,0,0-.184-1.261c-.166-.191-.407-.3-.559-.5l-.029-.05a.955.955,0,0,0,.029.977C206.435,437.378,206.658,437.494,206.824,437.681Z" transform="translate(-204.485 -420.332)"/>
        <path id="Path_181" data-name="Path 181" d="M220.511,398.352V397.3c-.065-1.261-.3-2.555-.36-3.82a46.172,46.172,0,0,0,.36,4.746C220.511,398.262,220.508,398.3,220.511,398.352Z" transform="translate(-213.455 -393.008)"/>
        <path id="Path_182" data-name="Path 182" d="M258.211,444.561c-.858,1.005-1.532-1.888-1.679-3.031a4.755,4.755,0,0,0-.032.6c.022.721.75,4.487,1.712,3.359a4.941,4.941,0,0,0,.677-3.265A3.886,3.886,0,0,1,258.211,444.561Z" transform="translate(-236.711 -423.741)"/>
        <path id="Path_183" data-name="Path 183" d="M222.2,417.838a12.4,12.4,0,0,1,.133,1.463,12.667,12.667,0,0,0-.133-2.393c-.047-.314-.108-.631-.137-.948-.89,1.665-1.715,3.445-3.4,4.177-1.308.566-2.833.342-4.177.8a1.442,1.442,0,0,0-.674.407,2.011,2.011,0,0,0-.339,1.016,11.528,11.528,0,0,1-3.737,6.245,5.081,5.081,0,0,1-4.227,1.7,20.652,20.652,0,0,1-3.02-.22,2.282,2.282,0,0,1-.454-.119c-.141.159-.288.31-.44.458.05.382.515.53.894.587a20.179,20.179,0,0,0,3.02.22,5.081,5.081,0,0,0,4.227-1.7,11.507,11.507,0,0,0,3.737-6.245,2.022,2.022,0,0,1,.339-1.016,1.485,1.485,0,0,1,.674-.407c1.344-.461,2.883-.234,4.177-.8,1.687-.721,2.523-2.523,3.4-4.173C222.089,417.2,222.15,417.52,222.2,417.838Z" transform="translate(-201.59 -407.387)"/>
        <path id="Path_184" data-name="Path 184" d="M272.256,394.567a2.436,2.436,0,0,1-.638,1.4c-.678.526-.814-.072-1.081-.616-.681-1.42-2.433-.721-3.716-.047l-.688.883a5.5,5.5,0,0,0-.782,1.207,8.5,8.5,0,0,0-.324,1.081c-.18.627-.44,1.225-.674,1.834a21.568,21.568,0,0,0-1.413,7.658v.382a21.514,21.514,0,0,1,1.409-7.11c.234-.609.494-1.211.674-1.838a8.5,8.5,0,0,1,.324-1.081,5.5,5.5,0,0,1,.782-1.207l.688-.883c1.283-.681,3.034-1.373,3.716.047.263.544.4,1.146,1.081.616a2.425,2.425,0,0,0,.638-1.4,12.22,12.22,0,0,0,.36-3.323A15.884,15.884,0,0,1,272.256,394.567Z" transform="translate(-240.83 -392.17)"/>
      </g>
      <path id="Path_185" data-name="Path 185" d="M311.914,471.811l.191.13a.764.764,0,0,1-.2-1.081l8.592-12.448a.76.76,0,0,1,1.063-.195l-.191-.133a1.229,1.229,0,0,1,.314,1.708l-8.062,11.7a1.233,1.233,0,0,1-1.708.317Z" transform="translate(-237.348 -313.981)" fill="#464353"/>
      <path id="Path_186" data-name="Path 186" d="M.627,0H.8V16.671H.627A.627.627,0,0,1,0,16.044V.631A.627.627,0,0,1,.627,0Z" transform="translate(83.614 143.794) rotate(34.56)" fill="#9f9eff"/>
      <rect id="Rectangle_16" data-name="Rectangle 16" width="0.155" height="1.359" rx="0.077" transform="translate(82.642 145.973) rotate(34.56)" fill="#464353"/>
      <path id="Path_187" data-name="Path 187" d="M819.528,329.209A6.224,6.224,0,1,1,813.3,323a6.224,6.224,0,0,1,6.224,6.209Zm-6.945,3.294,4.62-4.616a.4.4,0,0,0,0-.566l-.569-.569a.4.4,0,0,0-.566,0l-3.766,3.766-1.759-1.751a.407.407,0,0,0-.569,0l-.566.569a.4.4,0,0,0,0,.566l2.609,2.609a.4.4,0,0,0,.566,0Z" transform="translate(-564.874 -227.581)" fill="#3acc6c"/>
      <path id="Path_188" data-name="Path 188" d="M610.318,518.724a6.224,6.224,0,1,1-6.224-6.224A6.224,6.224,0,0,1,610.318,518.724Zm-6.945,3.294,4.635-4.617a.4.4,0,0,0,0-.569l-.584-.548a.4.4,0,0,0-.569,0l-3.766,3.748-1.759-1.759a.4.4,0,0,0-.566,0l-.569.566a.407.407,0,0,0,0,.569l2.609,2.609a.4.4,0,0,0,.569,0Z" transform="translate(-426.548 -348.789)" fill="#3acc6c"/>
      <path id="Path_189" data-name="Path 189" d="M610.318,707.384a6.224,6.224,0,1,1-6.224-6.224A6.224,6.224,0,0,1,610.318,707.384Zm-6.945,3.294,4.635-4.617a.4.4,0,0,0,0-.569l-.566-.566a.4.4,0,0,0-.569,0l-3.766,3.766-1.759-1.759a.4.4,0,0,0-.566,0l-.569.566a.407.407,0,0,0,0,.569l2.609,2.609a.4.4,0,0,0,.569,0Z" transform="translate(-426.548 -469.459)" fill="#3acc6c"/>
      <path id="Icon_ionic-md-headset" data-name="Icon ionic-md-headset" d="M18,3.375A13.683,13.683,0,0,0,4.5,17.234V28.012A4.558,4.558,0,0,0,9,32.632h4.5V20.25h-6V17.234A10.638,10.638,0,0,1,18,6.455,10.633,10.633,0,0,1,28.5,17.234V20.25h-6V32.625H27a4.553,4.553,0,0,0,4.5-4.62V17.234A13.683,13.683,0,0,0,18,3.375Z" transform="translate(126.5 119.625)" fill="#686a8f"/>
      <path id="Icon_awesome-tablet-alt" data-name="Icon awesome-tablet-alt" d="M28.125,0H3.375A3.376,3.376,0,0,0,0,3.375v29.25A3.376,3.376,0,0,0,3.375,36h24.75A3.376,3.376,0,0,0,31.5,32.625V3.375A3.376,3.376,0,0,0,28.125,0ZM15.75,33.75A2.25,2.25,0,1,1,18,31.5,2.248,2.248,0,0,1,15.75,33.75Zm12.375-7.594a.846.846,0,0,1-.844.844H4.219a.846.846,0,0,1-.844-.844V4.219a.846.846,0,0,1,.844-.844H27.281a.846.846,0,0,1,.844.844Z" transform="translate(130.737 63.634)" fill="#aa4562" opacity="0.59"/>
      <path id="Icon_awesome-mobile" data-name="Icon awesome-mobile" d="M19.125,0H3.375A3.376,3.376,0,0,0,0,3.375v29.25A3.376,3.376,0,0,0,3.375,36h15.75A3.376,3.376,0,0,0,22.5,32.625V3.375A3.376,3.376,0,0,0,19.125,0ZM11.25,33.75A2.25,2.25,0,1,1,13.5,31.5,2.248,2.248,0,0,1,11.25,33.75Z" transform="translate(209 64)" fill="#7d9ebc"/>
      <path id="Icon_awesome-battery-half" data-name="Icon awesome-battery-half" d="M38.25,11.25v4.5H40.5v4.5H38.25v4.5H4.5V11.25H38.25m1.125-4.5h-36A3.375,3.375,0,0,0,0,10.125v15.75A3.375,3.375,0,0,0,3.375,29.25h36a3.375,3.375,0,0,0,3.375-3.375V24.75h.563A1.687,1.687,0,0,0,45,23.063V12.938a1.687,1.687,0,0,0-1.687-1.687H42.75V10.125A3.375,3.375,0,0,0,39.375,6.75ZM22.5,13.5H6.75v9H22.5Z" transform="translate(198 197.25)" fill="#8394b7"/>
      <rect id="Rectangle_17366" data-name="Rectangle 17366" width="15.349" height="4.523" transform="translate(201.205 26.722)" fill="#aa4562"/>
      <path id="Icon_awesome-mobile-alt" data-name="Icon awesome-mobile-alt" d="M19.125,0H3.375A3.376,3.376,0,0,0,0,3.375v29.25A3.376,3.376,0,0,0,3.375,36h15.75A3.376,3.376,0,0,0,22.5,32.625V3.375A3.376,3.376,0,0,0,19.125,0ZM11.25,33.75A2.25,2.25,0,1,1,13.5,31.5,2.248,2.248,0,0,1,11.25,33.75Zm7.875-7.594a.846.846,0,0,1-.844.844H4.219a.846.846,0,0,1-.844-.844V4.219a.846.846,0,0,1,.844-.844H18.281a.846.846,0,0,1,.844.844Z" transform="translate(135.326 194.963)" fill="#aa4562" opacity="0.58"/>
    </g>
    <path id="Icon_material-gamepad" data-name="Icon material-gamepad" d="M22.5,11.25V3h-9v8.25l4.5,4.5ZM11.25,13.5H3v9h8.25l4.5-4.5ZM13.5,24.75V33h9V24.75L18,20.25ZM24.75,13.5,20.25,18l4.5,4.5H33v-9Z" transform="translate(185.905 130.185)" fill="#aa4562" opacity="0.72"/>
  </g>
</svg>
