<svg xmlns="http://www.w3.org/2000/svg" xmlns:xlink="http://www.w3.org/1999/xlink" width="309.206" height="275.501" viewBox="0 0 309.206 275.501">
  <defs>
    <linearGradient id="linear-gradient" x1="0.505" y1="1.007" x2="0.505" gradientUnits="objectBoundingBox">
      <stop offset="0" stop-color="gray" stop-opacity="0.251"/>
      <stop offset="0.54" stop-color="gray" stop-opacity="0.122"/>
      <stop offset="1" stop-color="gray" stop-opacity="0.102"/>
    </linearGradient>
  </defs>
  <g id="Group_25" data-name="Group 25" transform="translate(-32.731 -185.399)">
    <g id="Group_2" data-name="Group 2" transform="translate(122.484 185.399)">
      <rect id="Rectangle_76" data-name="Rectangle 76" width="4.048" height="33.357" rx="2.024" transform="translate(133.354 62.425)" fill="#3f3d56"/>
      <path id="Rectangle_80" data-name="Rectangle 80" d="M35,0h65.366c9.747,0,20.412.311,26.946,6.927,6.062,6.135,8.072,18.5,8.072,28.091V240.167c0,10.753-.237,22.247-8.072,28.844-5.884,4.956-18.359,6.174-26.946,6.174H35c-9.3,0-22.848-.077-29.309-6.174-6.577-6.2-5.709-18.807-5.709-28.844V35.018c0-10.289-1.531-21.526,5.709-28.091C11.734,1.449,25.951,0,35,0Z" transform="translate(0.151 0)" fill="#a85069"/>
      <path id="Path_176" data-name="Path 176" d="M572.654,199H557.122v1.868a8.853,8.853,0,0,1-8.858,8.853h-49.4a8.853,8.853,0,0,1-8.858-8.853V199H475.468a10.754,10.754,0,0,0-10.754,10.754V449.115a10.754,10.754,0,0,0,10.754,10.754h97.186a10.754,10.754,0,0,0,10.754-10.754V209.772A10.754,10.754,0,0,0,572.654,199Z" transform="translate(-455.963 -190.832)" fill="#f5f5f5"/>
      <rect id="Rectangle_81" data-name="Rectangle 81" width="18.908" height="3.837" rx="1.919" transform="translate(54.776 8.218)" fill="#e6e8ec"/>
      <circle id="Ellipse_5" data-name="Ellipse 5" cx="2.179" cy="2.179" r="2.179" transform="translate(76.543 7.958)" fill="#e6e8ec"/>
      <circle id="Ellipse_11" data-name="Ellipse 11" cx="25.614" cy="25.614" r="25.614" transform="translate(43.049 115.357)" fill="#fff"/>
      <path id="Path_222" data-name="Path 222" d="M588.679,443.845a34.234,34.234,0,1,1-34.234-34.235A34.234,34.234,0,0,1,588.679,443.845Zm-38.191,18.121,25.395-25.395a2.206,2.206,0,0,0,0-3.125l-3.125-3.1a2.2,2.2,0,0,0-3.12,0l-20.712,20.712-9.671-9.694a2.216,2.216,0,0,0-3.125,0l-3.125,3.143a2.216,2.216,0,0,0,0,3.125l14.358,14.353a2.207,2.207,0,0,0,3.125,0Z" transform="translate(-486.326 -306.451)" fill="#aa4562"/>
    </g>
    <g id="Group_1" data-name="Group 1" transform="translate(32.731 222.529)">
      <rect id="Rectangle_77" data-name="Rectangle 77" width="2.041" height="9.872" rx="1.02" transform="translate(92.929 18.121)" fill="#3f3d56"/>
      <rect id="Rectangle_78" data-name="Rectangle 78" width="2.3" height="17.181" rx="1.15" transform="translate(92.855 36.197)" fill="#3f3d56"/>
      <rect id="Rectangle_79" data-name="Rectangle 79" width="2.189" height="17.328" rx="1.094" transform="translate(92.892 59.389)" fill="#3f3d56"/>
      <path id="Path_190" data-name="Path 190" d="M377.46,474.88a.378.378,0,0,0,.448.057A1.584,1.584,0,0,1,377.46,474.88Z" transform="translate(-311.69 -369.669)" fill="url(#linear-gradient)"/>
      <path id="Path_192" data-name="Path 192" d="M385.027,491l-.442,2.406-.341,1.841-.62,3.367-6.012,4.209s-.542-.464-1.436-1.2a104.747,104.747,0,0,0-11.444-8.377,12.805,12.805,0,0,0-3.146-1.449Z" transform="translate(-302.335 -379.17)" fill="#feb9b9"/>
      <path id="Path_194" data-name="Path 194" d="M373.631,485.854s7.009,1.2,7.42-1.79-3.608-4.611-7.014-4.813-23.845,1.2-23.845,1.2-3.605,4.809,9.416,5.613Z" transform="translate(-295.349 -372.234)" fill="#3f3d56"/>
      <rect id="Rectangle_82" data-name="Rectangle 82" width="36.669" height="43.482" transform="translate(56.942 14.84)" fill="#2f2e41"/>
      <rect id="Rectangle_83" data-name="Rectangle 83" width="36.669" height="43.482" transform="translate(56.942 15.037)" opacity="0.1"/>
      <path id="Path_198" data-name="Path 198" d="M231.255,430.883a5.884,5.884,0,0,0-2.234,1.581c-3.7,3.659-8.989,12.245-8.989,12.245-6.767-8.061.721-14.43,3.913-16.618.776-.53,1.3-.821,1.3-.821Z" transform="translate(-217.289 -341.609)" fill="#feb9b9"/>
      <path id="Path_199" data-name="Path 199" d="M389.795,288.22s1.8,12.623,8.015,15.629-8.015,8.623-8.015,8.623l-19.435-7.219s11.021-3.608,8.816-14.228Z" transform="translate(-307.505 -259.657)" fill="#feb9b9"/>
      <path id="Path_200" data-name="Path 200" d="M333.269,473.16l-.44,2.4-.357,1.848-.62,3.367-6.012,4.2s-.542-.46-1.436-1.191a104.285,104.285,0,0,0-11.45-8.377,12.729,12.729,0,0,0-3.146-1.449Z" transform="translate(-271.818 -368.656)" fill="#feb9b9"/>
      <path id="Path_202" data-name="Path 202" d="M320.974,469.183s6.291.045,6.669-2.957-3.428-4.611-6.669-4.813-22.932,1.3-22.932,1.3-2.794,5.67,9.592,6.473Z" transform="translate(-264.724 -361.721)" fill="#2f2e41"/>
      <path id="Path_204" data-name="Path 204" d="M392.065,516.395c-.275-.135-.55-.275-.821-.411l-.739-.932-9.695-12.294v.214c-.066,2.053-.764,18.322-6.209,19.825-5.81,1.6-12.82,2-16.015-8.816s-9.034-34.464-15.029-35.868l8.919-7.313s5.9,6.907,8.311,13.518c-.09-.41-4.168-19.464-.821-22.835h29.26s4.517,12.865,7.613,19.238c2.41,4.948,6.028,16.647,8.357,24.564A9.4,9.4,0,0,1,392.065,516.395Z" transform="translate(-291.708 -361.773)" fill="#3f3d56"/>
      <path id="Path_205" data-name="Path 205" d="M412.823,429.963c-4.517,2.673-24.346,1.585-30.8,1.15l-1.758-.127c-.189,0,.029-.107.029-.107l.181-1.819,4.809-12.22,25.746-14.93a22.407,22.407,0,0,0-.653,6.734C410.5,417.5,412.823,429.963,412.823,429.963Z" transform="translate(-313.3 -326.662)" opacity="0.1"/>
      <path id="Path_206" data-name="Path 206" d="M412.515,428.512c-4.517,2.673-24.346,1.585-30.8,1.15l-1.758-.123-.292-.025.32-.082,1.585-.411,3.4-13.625,25.746-14.926a22.42,22.42,0,0,0-.653,6.734C410.191,416.049,412.515,428.512,412.515,428.512Z" transform="translate(-312.991 -325.814)" fill="#efefef"/>
      <path id="Path_207" data-name="Path 207" d="M410.451,407.2c-5.236,1.207-16.758,4.749-21.184,13.3-2.952,5.7-5.437,8.139-7.17,9.161l-1.758-.123a1.018,1.018,0,0,0,.029-.107l1.585-.411,3.4-13.625L411.1,400.47A22.523,22.523,0,0,0,410.451,407.2Z" transform="translate(-313.386 -325.814)" opacity="0.1"/>
      <path id="Path_208" data-name="Path 208" d="M234.8,427.29l6.012,3.605a5.885,5.885,0,0,0-2.234,1.581c-.5-1.462-3.645-3.5-5.075-4.373C234.277,427.582,234.8,427.29,234.8,427.29Z" transform="translate(-226.844 -341.621)" opacity="0.1"/>
      <path id="Path_209" data-name="Path 209" d="M377.141,471.747a.357.357,0,0,1-.411-.057,1.423,1.423,0,0,0,.411.057Z" transform="translate(-311.259 -367.789)" opacity="0.1"/>
      <path id="Path_210" data-name="Path 210" d="M306.152,280.345a11.914,11.914,0,0,1-9.218-3.408s-16.015,4.611-21.439,15.029S233.2,322.824,233.2,322.824s6.414,3.605,5.81,5.408l24.248-14.027s8.623-6.209,11.017-7.613,15.633-10.019,18.437,13.424,0,20.638,0,20.638,4.008,1.4,9.818-9.818,23.841-13.826,23.841-13.826l1-11.818s3.577-7.835.821-11.087a6.981,6.981,0,0,1-1.606-3.392c-.456-3,0-8,6.381-12.159,9.818-6.414,13.625-11.621,13.625-11.621s.2-3.81-5.81-5.613S310.328,249.7,310.328,249.7l-.821,3.408,19.287,13.612s-9.617,7.8-17.246,7.613C311.548,274.333,312.964,280.144,306.152,280.345Z" transform="translate(-226.667 -236.954)" fill="#6c63ff"/>
      <path id="Path_211" data-name="Path 211" d="M402.72,294.575a39.133,39.133,0,0,1-1.109-4.895l-10.619,2.805a11.642,11.642,0,0,1-.242,6.127A11.42,11.42,0,0,0,402.72,294.575Z" transform="translate(-319.522 -260.517)" opacity="0.1"/>
      <circle id="Ellipse_10" data-name="Ellipse 10" cx="11.42" cy="11.42" r="11.42" transform="translate(62.958 15.041)" fill="#feb9b9"/>
      <path id="Path_213" data-name="Path 213" d="M428.67,507.07s6.611,13.025,4.607,17.029" transform="translate(-341.871 -388.641)" opacity="0.1"/>
      <path id="Path_221" data-name="Path 221" d="M368.6,218.746c3.17.362,6.18,1.72,9.3,2.464a4.616,4.616,0,0,0,2.406.09c1.211-.374,2.2-1.642,3.453-1.606a3.828,3.828,0,0,1,2.094,1.055,25.761,25.761,0,0,1,2.874,2.562c2.152,2.336,3.486,5.482,5.449,8.024s4.762,5.522,7.55,4.357A16.118,16.118,0,0,1,387.2,248.168c-2.681.184-5.429-.374-8.024.41a6.951,6.951,0,0,1-2.025.493c-1.495,0-2.7-1.371-3.63-2.706-2.185-3.137-3.913-6.7-6.373-9.559a5.241,5.241,0,0,0-2.92-2.02,5.406,5.406,0,0,0-3.227.908,15.145,15.145,0,0,0-4.722,3.285,6.537,6.537,0,0,0-1.593,5.749c.292,1.092.957,2.078.969,3.219.025,1.823-1.585,3.154-1.9,4.928a18.484,18.484,0,0,0-.078,2.242c-.14,2.43-1.73,4.418-3.387,5.95a4.271,4.271,0,0,0-1.552,2.147c-.127.628,0,1.289-.082,1.926-.242,1.577-1.815,2.378-3.207,2.583a9.251,9.251,0,0,1-4.813-.571,5.549,5.549,0,0,0,2.694-5.884c-.62-3.252-3.889-5.589-3.608-8.9a10.309,10.309,0,0,1,.9-2.928,26.822,26.822,0,0,0,1.544-5.547,9.347,9.347,0,0,0-.095-4.422,13.746,13.746,0,0,0-2-3.363,19.125,19.125,0,0,1-2.312-4.735,3.331,3.331,0,0,1-.221-1.569,3.236,3.236,0,0,1,1.006-1.622c1.786-1.878,3.7-3.827,6.09-4.365a13.708,13.708,0,0,1,3.457-.131,40.806,40.806,0,0,0,6.007-.255c1.642-.193,4.418-.168,5.81-1.232,1.3-.994,2.029-2.242,3.626-2.874a10.677,10.677,0,0,1,5.067-.579Z" transform="translate(-288.154 -218.66)" fill="#2f2e41"/>
    </g>
    <ellipse id="Ellipse_9" data-name="Ellipse 9" cx="16.565" cy="2.801" rx="16.565" ry="2.801" transform="translate(308.806 455.298)" fill="#6c63ff"/>
    <path id="Path_179" data-name="Path 179" d="M895.213,830.263a4.823,4.823,0,0,0,1.578-2.385,2.126,2.126,0,0,0-1.1-2.427c-1.014-.387-2.1.317-2.917,1.026s-1.763,1.52-2.839,1.368a4.317,4.317,0,0,0,1.34-4.041,1.7,1.7,0,0,0-.375-.824c-.56-.6-1.583-.346-2.253.132-2.142,1.5-2.74,4.418-2.752,7.032a13.22,13.22,0,0,1-.041-2.884,2.976,2.976,0,0,0-1.088-2.566,3.271,3.271,0,0,0-1.648-.387,3.432,3.432,0,0,0-2.694.766,2.655,2.655,0,0,0,.107,3.3,10.5,10.5,0,0,0,2.789,2.233,6.179,6.179,0,0,1,1.988,1.9,1.711,1.711,0,0,1,.147.342h6.019a16.917,16.917,0,0,0,3.741-2.577Z" transform="translate(-562.991 -376.744)" fill="#6c63ff"/>
    <path id="Path_179-2" data-name="Path 179" d="M890,827.666a3.183,3.183,0,0,0,1.041-1.574,1.4,1.4,0,0,0-.729-1.6c-.669-.255-1.384.209-1.925.677a2.571,2.571,0,0,1-1.873.9,2.849,2.849,0,0,0,.884-2.667,1.124,1.124,0,0,0-.247-.544c-.368-.4-1.044-.228-1.487.087-1.414.994-1.808,2.914-1.816,4.641a8.742,8.742,0,0,1-.027-1.9,1.966,1.966,0,0,0-.718-1.694,2.16,2.16,0,0,0-1.088-.255,2.265,2.265,0,0,0-1.778.506,1.753,1.753,0,0,0,.071,2.175,6.894,6.894,0,0,0,1.841,1.473,4.078,4.078,0,0,1,1.313,1.252,1.14,1.14,0,0,1,.1.226h3.972a11.163,11.163,0,0,0,2.469-1.7Z" transform="translate(-785.332 -370.401)" fill="#efefef"/>
    <path id="Path_223" data-name="Path 223" d="M890,827.666a3.183,3.183,0,0,0,1.041-1.574,1.4,1.4,0,0,0-.729-1.6c-.669-.255-1.384.209-1.925.677a2.571,2.571,0,0,1-1.873.9,2.849,2.849,0,0,0,.884-2.667,1.124,1.124,0,0,0-.247-.544c-.368-.4-1.044-.228-1.487.087-1.414.994-1.808,2.914-1.816,4.641a8.742,8.742,0,0,1-.027-1.9,1.966,1.966,0,0,0-.718-1.694,2.16,2.16,0,0,0-1.088-.255,2.265,2.265,0,0,0-1.778.506,1.753,1.753,0,0,0,.071,2.175,6.894,6.894,0,0,0,1.841,1.473,4.078,4.078,0,0,1,1.313,1.252,1.14,1.14,0,0,1,.1.226h3.972a11.163,11.163,0,0,0,2.469-1.7Z" transform="translate(-847.158 -370.401)" fill="#efefef"/>
    <path id="Path_177" data-name="Path 177" d="M801.274,156.865s-34.689-2.093-30.6,22.214c0,0-.824,4.3,3.081,6.245,0,0,.062-1.8,3.559-1.187a16.273,16.273,0,0,0,3.77.181,7.853,7.853,0,0,0,4.606-1.883h0s9.752-4.029,13.542-19.964c0,0,2.805-3.477,2.694-4.371l-5.854,2.5s2,4.223.412,7.731c0,0-.19-7.58-1.314-7.416-.226.033-3.04,1.462-3.04,1.462s3.44,7.354.844,12.7c0,0,.985-9.063-1.92-12.17l-4.12,2.406s4.021,7.6,1.294,13.8c0,0,.7-9.509-2.163-13.212l-3.732,2.913s3.778,7.485,1.475,12.628c0,0-.3-11.066-2.283-11.9,0,0-3.267,2.884-3.766,4.062,0,0,2.587,5.438.98,8.305,0,0-.984-7.374-1.792-7.416,0,0-3.255,4.886-3.593,8.239a17.754,17.754,0,0,1,2.805-8.7,9.815,9.815,0,0,0-4.985,2.577s.506-3.452,5.788-3.757c0,0,2.69-3.708,3.407-3.93,0,0-5.249-.442-8.433.972,0,0,2.8-3.259,9.4-1.776l3.687-3.012s-6.913-.944-9.846.1c0,0,3.374-2.884,10.839-.783l4.013-2.4s-5.9-1.269-9.405-.824c0,0,3.708-2,10.584.169l2.884-1.289s-4.318-.849-5.583-.984-1.331-.482-1.331-.482a14.976,14.976,0,0,1,8.112.9S801.377,157.249,801.274,156.865Z" transform="translate(-463.552 48.135)" fill="#6c63ff"/>
    <path id="Path_178" data-name="Path 178" d="M739.117,130.665s-15.655-.944-13.826,10.04a2.676,2.676,0,0,0,1.392,2.822s.029-.824,1.611-.54a7.212,7.212,0,0,0,1.7.082,3.526,3.526,0,0,0,2.081-.857h0s4.408-1.821,6.122-9.022c0,0,1.265-1.569,1.215-1.973l-2.645,1.129a4.753,4.753,0,0,1,.194,3.493s-.087-3.424-.593-3.345c-.1,0-1.376.663-1.376.663s1.557,3.325.383,5.739c0,0,.445-4.1-.869-5.5l-1.862,1.1s1.817,3.432.585,6.233c0,0,.317-4.3-.976-5.969l-1.685,1.318s1.706,3.382.667,5.707c0,0-.14-5-1.034-5.38a10.335,10.335,0,0,0-1.7,1.838s1.17,2.472.445,3.753c0,0-.445-3.333-.824-3.35a11.1,11.1,0,0,0-1.623,3.708,8.04,8.04,0,0,1,1.269-3.93,4.433,4.433,0,0,0-2.254,1.166s.231-1.561,2.616-1.7a11.275,11.275,0,0,1,1.541-1.78,9.649,9.649,0,0,0-3.811.442s1.265-1.471,4.243-.8l1.648-1.36s-3.126-.416-4.451.043c0,0,1.524-1.3,4.9-.354L734.01,133a16.563,16.563,0,0,0-4.252-.368s1.677-.9,4.783.074l1.3-.581s-1.951-.383-2.526-.445-.6-.218-.6-.218a6.752,6.752,0,0,1,3.667.412A16.951,16.951,0,0,0,739.117,130.665Z" transform="translate(-448.923 61.466)" fill="#3f3d56"/>
    <path id="Path_224" data-name="Path 224" d="M739.117,130.665s-15.655-.944-13.826,10.04a2.676,2.676,0,0,0,1.392,2.822s.029-.824,1.611-.54a7.212,7.212,0,0,0,1.7.082,3.526,3.526,0,0,0,2.081-.857h0s4.408-1.821,6.122-9.022c0,0,1.265-1.569,1.215-1.973l-2.645,1.129a4.753,4.753,0,0,1,.194,3.493s-.087-3.424-.593-3.345c-.1,0-1.376.663-1.376.663s1.557,3.325.383,5.739c0,0,.445-4.1-.869-5.5l-1.862,1.1s1.817,3.432.585,6.233c0,0,.317-4.3-.976-5.969l-1.685,1.318s1.706,3.382.667,5.707c0,0-.14-5-1.034-5.38a10.335,10.335,0,0,0-1.7,1.838s1.17,2.472.445,3.753c0,0-.445-3.333-.824-3.35a11.1,11.1,0,0,0-1.623,3.708,8.04,8.04,0,0,1,1.269-3.93,4.433,4.433,0,0,0-2.254,1.166s.231-1.561,2.616-1.7a11.275,11.275,0,0,1,1.541-1.78,9.649,9.649,0,0,0-3.811.442s1.265-1.471,4.243-.8l1.648-1.36s-3.126-.416-4.451.043c0,0,1.524-1.3,4.9-.354L734.01,133a16.563,16.563,0,0,0-4.252-.368s1.677-.9,4.783.074l1.3-.581s-1.951-.383-2.526-.445-.6-.218-.6-.218a6.752,6.752,0,0,1,3.667.412A16.951,16.951,0,0,0,739.117,130.665Z" transform="translate(-690.343 229.141)" fill="#3f3d56"/>
  </g>
</svg>
