<svg xmlns="http://www.w3.org/2000/svg" xmlns:xlink="http://www.w3.org/1999/xlink" width="254.912" height="214.997" viewBox="0 0 254.912 214.997">
  <defs>
    <linearGradient id="linear-gradient" x1="0.5" y1="1" x2="0.5" gradientUnits="objectBoundingBox">
      <stop offset="0" stop-color="gray" stop-opacity="0.251"/>
      <stop offset="0.535" stop-color="gray" stop-opacity="0.122"/>
      <stop offset="1" stop-color="gray" stop-opacity="0.102"/>
    </linearGradient>
    <linearGradient id="linear-gradient-10" x1="0.5" y1="1" x2="0.5" y2="0" xlink:href="#linear-gradient"/>
  </defs>
  <g id="Group_20" data-name="Group 20" transform="translate(180.305 0.717)">
    <path id="Path_308" data-name="Path 308" d="M448.007,180.556a85.044,85.044,0,0,1-1.4,15.41c-.076.421-.157.842-.242,1.262-6.069,30.437-28.467,55.84-58.826,68.74l-.443.187q-1.778.748-3.6,1.439c-.326.122-.649.244-.978.364a114.844,114.844,0,0,1-20.365,5.447c-.309.055-.617.1-.926.153a118.909,118.909,0,0,1-19.148,1.553h-.294q-.856,0-1.709-.018c-.108,0-.215,0-.323-.005A118.711,118.711,0,0,1,320.7,273.2c-.306-.057-.612-.114-.917-.174a114.378,114.378,0,0,1-16.547-4.442c-.329-.112-.652-.229-.978-.348q-1.817-.651-3.6-1.366l-.443-.179c-31.245-12.659-54.388-38.446-60.573-69.465-.084-.421-.166-.842-.242-1.262a85.437,85.437,0,0,1-.012-30.751c.1-.584.218-1.172.341-1.753a85.1,85.1,0,0,1,3.407-12.064q.218-.6.446-1.208C255.765,112.865,295.368,86,342,86c52,0,95.255,33.4,104.274,77.46.122.582.236,1.169.341,1.753A85.08,85.08,0,0,1,448.007,180.556Z" transform="translate(-395.119 -68)" fill="#4f44ff" opacity="0.1"/>
    <path id="Path_309" data-name="Path 309" d="M534.409,222.76h-.565c-.115,0-.4-.452-.4-.582v-.525c0-.41-.464-1.535-.874-1.535s-.874,1.125-.874,1.535v.525c0,.185-.143.582-.317.582h-.565c-.41,0-1.535.318-1.535.728s1.125.728,1.535.728h.674c.214,0,.208.22.208.331v.7c0,.41.464,1.535.874,1.535s.874-1.125.874-1.535v-.7c0-.093.188-.331.291-.331h.674c.41,0,1.535-.318,1.535-.728S534.819,222.76,534.409,222.76Z" transform="translate(-552.82 -181.061)" fill="#2196f3"/>
    <path id="Path_310" data-name="Path 310" d="M258.383,323.935h-.747c-.152,0-.528-.6-.528-.768v-.694c0-.542-.613-2.027-1.154-2.027s-1.154,1.486-1.154,2.027v.694c0,.244-.188.768-.419.768h-.747c-.542,0-2.027.42-2.027.962s1.486.962,2.027.962h.891c.282,0,.275.29.275.438v.926c0,.542.613,2.027,1.154,2.027s1.154-1.486,1.154-2.027V326.3c0-.123.248-.438.384-.438h.891c.542,0,2.027-.42,2.027-.962S258.924,323.935,258.383,323.935Z" transform="translate(-320.826 -265.209)" fill="url(#linear-gradient)"/>
    <path id="Path_311" data-name="Path 311" d="M532.383,219.935h-.747c-.152,0-.528-.6-.528-.768v-.694c0-.542-.613-2.027-1.154-2.027s-1.154,1.486-1.154,2.027v.694c0,.244-.189.768-.419.768h-.747c-.542,0-2.027.42-2.027.962s1.486.962,2.027.962h.891c.282,0,.275.29.275.438v.926c0,.542.613,2.027,1.154,2.027s1.154-1.486,1.154-2.027V222.3c0-.123.248-.438.384-.438h.891c.542,0,2.027-.42,2.027-.962S532.924,219.935,532.383,219.935Z" transform="translate(-550.376 -178.457)" fill="url(#linear-gradient)"/>
    <path id="Path_312" data-name="Path 312" d="M809.383,266.935h-.747c-.152,0-.528-.6-.528-.768v-.694c0-.542-.613-2.027-1.154-2.027s-1.154,1.486-1.154,2.027v.694c0,.244-.188.768-.419.768h-.747c-.542,0-2.027.42-2.027.962s1.486.962,2.027.962h.891c.282,0,.275.29.275.438v.926c0,.542.613,2.027,1.154,2.027s1.154-1.486,1.154-2.027V269.3c0-.123.248-.438.384-.438h.891c.542,0,2.027-.42,2.027-.962S809.924,266.935,809.383,266.935Z" transform="translate(-798.507 -220.459)" fill="url(#linear-gradient)"/>
    <path id="Path_313" data-name="Path 313" d="M707.848,255.1h-.36c-.073,0-.288-.285-.288-.368V254.4c0-.261-.321-.978-.582-.978s-.582.717-.582.978v.335c0,.118-.007.368-.118.368h-.36c-.261,0-.978.176-.978.437s.717.437.978.437h.43c.136,0,.048.2.048.269v.447c0,.261.321.978.582.978s.582-.717.582-.978v-.446c0-.059.153-.269.219-.269h.43c.261,0,.978-.176.978-.437S708.11,255.1,707.848,255.1Z" transform="translate(-698.7 -204.663)" fill="#1976d2"/>
    <path id="Path_314" data-name="Path 314" d="M355.314,308.564h-.587c-.12,0-.469-.465-.469-.6v-.546c0-.426-.524-1.594-.949-1.594s-.949,1.168-.949,1.594v.546c0,.192-.011.6-.192.6h-.587c-.426,0-1.594.286-1.594.712s1.168.712,1.594.712h.7c.222,0,.079.322.079.438v.728c0,.426.524,1.594.949,1.594s.949-1.168.949-1.594v-.728c0-.1.249-.438.356-.438h.7c.426,0,1.594-.286,1.594-.712S355.74,308.564,355.314,308.564Z" transform="translate(-402.806 -253.632)" fill="url(#linear-gradient)"/>
    <path id="Path_315" data-name="Path 315" d="M705.314,251.564h-.587c-.12,0-.469-.465-.469-.6v-.546c0-.426-.524-1.594-.949-1.594s-.949,1.168-.949,1.594v.546c0,.192-.011.6-.192.6h-.587c-.426,0-1.594.286-1.594.712s1.168.712,1.594.712h.7c.222,0,.079.322.079.438v.728c0,.426.524,1.594.949,1.594s.949-1.168.949-1.594v-.728c0-.1.249-.438.356-.438h.7c.426,0,1.594-.286,1.594-.712S705.74,251.564,705.314,251.564Z" transform="translate(-695.798 -201.46)" fill="url(#linear-gradient)"/>
    <path id="Path_316" data-name="Path 316" d="M357.848,312.1h-.36c-.073,0-.288-.285-.288-.368V311.4c0-.261-.321-.978-.582-.978s-.582.717-.582.978v.335c0,.118-.007.368-.118.368h-.36c-.261,0-.978.176-.978.437s.717.437.978.437h.43c.136,0,.048.2.048.269v.447c0,.261.321.978.582.978s.582-.717.582-.978v-.446c0-.059.153-.269.219-.269h.43c.261,0,.978-.176.978-.437S358.109,312.1,357.848,312.1Z" transform="translate(-406.03 -257.076)" fill="#1976d2"/>
    <circle id="Ellipse_65" data-name="Ellipse 65" cx="2.184" cy="2.184" r="2.184" transform="translate(-4.316 41.408)" fill="#64b5f6"/>
    <circle id="Ellipse_66" data-name="Ellipse 66" cx="0.728" cy="0.728" r="0.728" transform="translate(-5.013 52.215)" fill="#0071bc"/>
    <circle id="Ellipse_67" data-name="Ellipse 67" cx="2.026" cy="2.026" r="2.026" transform="translate(-52.881 45.777)" fill="#64b5f6"/>
    <circle id="Ellipse_68" data-name="Ellipse 68" cx="1.013" cy="1.013" r="1.013" transform="translate(-61.967 54.396)" fill="#64b5f6"/>
    <circle id="Ellipse_69" data-name="Ellipse 69" cx="1.013" cy="1.013" r="1.013" transform="translate(-14.74 60.797)" fill="#82a9ff"/>
    <circle id="Ellipse_70" data-name="Ellipse 70" cx="1.893" cy="1.893" r="1.893" transform="translate(-58.183 73.533)" fill="#82a9ff"/>
    <circle id="Ellipse_71" data-name="Ellipse 71" cx="1.768" cy="1.768" r="1.768" transform="translate(-36.911 41.594)" fill="url(#linear-gradient)"/>
    <circle id="Ellipse_72" data-name="Ellipse 72" cx="1.768" cy="1.768" r="1.768" transform="translate(-36.747 52.167)" fill="url(#linear-gradient)"/>
    <circle id="Ellipse_73" data-name="Ellipse 73" cx="1.768" cy="1.768" r="1.768" transform="translate(-7.329 36.934)" fill="url(#linear-gradient)"/>
    <circle id="Ellipse_74" data-name="Ellipse 74" cx="1.768" cy="1.768" r="1.768" transform="translate(32.266 55.649)" fill="url(#linear-gradient)"/>
    <circle id="Ellipse_75" data-name="Ellipse 75" cx="1.08" cy="1.08" r="1.08" transform="translate(-36.167 42.282)" fill="#0d47a1"/>
    <circle id="Ellipse_76" data-name="Ellipse 76" cx="2.184" cy="2.184" r="2.184" transform="translate(-22.166 47.253)" fill="#64b5f6"/>
    <path id="Path_317" data-name="Path 317" d="M328.193,458.19l-24.98.516-6.916-7.948,37.24-.67Z" transform="translate(-365.244 -268.464)" fill="#e0e0e0"/>
    <path id="Path_318" data-name="Path 318" d="M333.537,440.782H296.3l7.432-3.975,21.883-.723Z" transform="translate(-367.194 -249.956)" fill="#e0e0e0"/>
    <path id="Path_319" data-name="Path 319" d="M526.086,552.909a20.826,20.826,0,0,1-1.9,7.391c-.146.349-.294.7-.443,1.04l-.463,1.048a21.888,21.888,0,0,1-2.912,5.224c-.073.087-.146.175-.221.259a9.093,9.093,0,0,1-.978.946,6.694,6.694,0,0,1-3.888,1.651c-2.778.146-5.187-1.791-7.289-3.617q-3.761-3.259-7.522-6.526-1.293-1.118-2.586-2.242c-.183-.157-.367-.317-.55-.478v35.6h-.644l.384,6.031.8,12.621a106.377,106.377,0,0,1-19.148,1.742l-.53-14.342-.151-4.086-.073-1.966h-.6l-.052,1.069-.236,4.983-.684,14.316a106.316,106.316,0,0,1-19.057-2.114l.76-12.2.379-6.049h-.376V557.03a31.545,31.545,0,0,1-3.7,4.089,80.553,80.553,0,0,1-8.6,6.724,18.349,18.349,0,0,1-5.923,3.09,7.668,7.668,0,0,1-.978.172,5.942,5.942,0,0,1-2.723-.294,5.434,5.434,0,0,1-.874-.4c-.154-.084-.3-.175-.443-.271-2.181-1.488-3.329-4.342-4.228-6.937-1.089-3.145-2.2-6.439-1.733-9.735a14.97,14.97,0,0,1,2.158-5.565c.708-1.179,1.511-2.315,2.306-3.428a2.979,2.979,0,0,1,1.45-1.273h0l.044-.009a1.159,1.159,0,0,1,.224-.032,1.787,1.787,0,0,1,.218.006,2.9,2.9,0,0,1,1.564,1.01l2.033,2.094.979,1c.052.055.1.111.16.166l1.29,1.328c.842-1.453,1.689-2.915,2.583-4.345a37.606,37.606,0,0,1,6.352-8,21.089,21.089,0,0,1,4.138-2.97,17.389,17.389,0,0,1,4.115-1.628,7.184,7.184,0,0,1,3.73-.306,2.064,2.064,0,0,1,1.29,1.742.085.085,0,0,1,.006.029,8.15,8.15,0,0,1,.134,1.558c0,.323,0,.646,0,.973h27.672c-.026-.839-.049-1.759-.006-2.531.009-.186.023-.364.041-.53a2.2,2.2,0,0,1,.315-1.086,1.377,1.377,0,0,1,1.075-.4,13.189,13.189,0,0,1,4.022,1.168,26.478,26.478,0,0,1,3.675,1.712,26.946,26.946,0,0,1,12.353,14.625,5.694,5.694,0,0,1,1.078-2.1,6.5,6.5,0,0,1,1.156-1.124,7.092,7.092,0,0,1,2.312-1.165,6.532,6.532,0,0,1,1.8-.277,5.774,5.774,0,0,1,.979.064,5.531,5.531,0,0,1,1.517.446,6.576,6.576,0,0,1,2.079,1.526c.157.169.3.344.443.524a9.362,9.362,0,0,1,1.724,4.033A10.428,10.428,0,0,1,526.086,552.909Z" transform="translate(-528.718 -432.328)" fill="#fff"/>
    <path id="Path_320" data-name="Path 320" d="M566.8,428.369h-3.727c-2.195-7.762-9.025-14.038-17.115-14.038s-14.92,6.276-17.115,14.038h-3.633v8.051h3.108c1.339,8.443,8.726,14.038,17.64,14.038s16.3-5.6,17.64-14.038h3.2Z" transform="translate(-596.741 -346.953)" fill="#fff"/>
    <path id="Path_1095" data-name="Path 1095" d="M14.451,0A14.451,14.451,0,1,1,0,14.451,14.451,14.451,0,0,1,14.451,0Z" transform="translate(-65.888 70.824)" fill="#aa4562"/>
    <path id="Path_321" data-name="Path 321" d="M743.032,368.631a3.7,3.7,0,0,1-1.366,2.874V485.456l-.443.21q-1.778.839-3.6,1.613c-.326.137-.649.274-.979.408v-116.5a3.7,3.7,0,1,1,6.383-2.551Z" transform="translate(-750.581 -336.127)" fill="url(#linear-gradient-10)"/>
    <path id="Path_322" data-name="Path 322" d="M743.681,369.729a3.227,3.227,0,0,1-.62,1.907,3.175,3.175,0,0,1-.711.713.163.163,0,0,1-.026.02V486.764q-1.778.839-3.6,1.613V372.5a3.25,3.25,0,1,1,4.954-2.767Z" transform="translate(-831.868 -338.226)" fill="#e0e0e0"/>
    <path id="Path_323" data-name="Path 323" d="M815.815,383.918a70.963,70.963,0,0,1-1.4,15.057c-19.828-29.139-39.656,35.9-59.484,2.218V366.719c19.832,33.688,39.664-31.382,59.5-2.2A151.211,151.211,0,0,1,815.815,383.918Z" transform="translate(-768.223 -325.154)" fill="#aa4562"/>
    <path id="Path_325" data-name="Path 325" d="M453.008,369.058a2.361,2.361,0,0,1-1.1,1.927,3.039,3.039,0,0,1-.451.268v92.531q-1.817-.579-3.6-1.216V371.154a.159.159,0,0,1-.026-.016,2.939,2.939,0,0,1-.711-.566,2.162,2.162,0,0,1,0-3.031,3.758,3.758,0,0,1,3.634-.935A2.715,2.715,0,0,1,453.008,369.058Z" transform="translate(-540.213 -312.351)" fill="#e0e0e0"/>
    <path id="Path_326" data-name="Path 326" d="M298.632,366.719v34.474c-20.411-33.7-40.821,31.442-61.232,2.16a150.053,150.053,0,0,1-1.4-19.435,71.9,71.9,0,0,1,1.389-15.056C257.8,398.186,278.218,333.009,298.632,366.719Z" transform="translate(-385.742 -319.154)" fill="#aa4562"/>
    <path id="Path_327" data-name="Path 327" d="M562.75,434.532a14.427,14.427,0,0,1,11.537,5.75,14.452,14.452,0,1,0-24.9,14.21,14.454,14.454,0,0,1,13.362-19.96Z" transform="translate(-603.215 -404.691)" opacity="0.2"/>
    <path id="Path_328" data-name="Path 328" d="M406.909,333.76h-.565c-.115,0-.4-.452-.4-.582v-.525c0-.41-.464-1.535-.874-1.535s-.874,1.125-.874,1.535v.525c0,.185-.143.582-.317.582h-.565c-.41,0-1.535.318-1.535.728s1.125.728,1.535.728h.674c.214,0,.208.22.208.331v.7c0,.41.464,1.535.874,1.535s.874-1.125.874-1.535v-.7c0-.093.188-.331.291-.331h.674c.41,0,1.535-.318,1.535-.728S407.319,333.76,406.909,333.76Z" transform="translate(-446.099 -273.435)" fill="#2196f3"/>
    <circle id="Ellipse_78" data-name="Ellipse 78" cx="1.019" cy="1.019" r="1.019" transform="translate(-27.167 74.435)" fill="#0d47a1"/>
    <circle id="Ellipse_79" data-name="Ellipse 79" cx="2.026" cy="2.026" r="2.026" transform="translate(-79.845 32.811)" fill="#64b5f6"/>
    <circle id="Ellipse_80" data-name="Ellipse 80" cx="0.728" cy="0.728" r="0.728" transform="translate(-8.061 70.993)" fill="#0071bc"/>
    <circle id="Ellipse_81" data-name="Ellipse 81" cx="1.08" cy="1.08" r="1.08" transform="translate(-36.002 52.758)" fill="#0d47a1"/>
    <path id="Path_329" data-name="Path 329" d="M811.409,269.76h-.565c-.115,0-.4-.452-.4-.582v-.525c0-.41-.464-1.535-.874-1.535s-.874,1.125-.874,1.535v.525c0,.185-.143.582-.317.582h-.565c-.41,0-1.535.318-1.535.728s1.125.728,1.535.728h.674c.214,0,.208.22.208.331v.7c0,.41.464,1.535.874,1.535s.874-1.125.874-1.535v-.7c0-.093.188-.331.291-.331h.674c.41,0,1.535-.318,1.535-.728S811.819,269.76,811.409,269.76Z" transform="translate(-871.51 -241.373)" fill="#2196f3"/>
    <circle id="Ellipse_82" data-name="Ellipse 82" cx="1.019" cy="1.019" r="1.019" transform="translate(32.964 56.11)" fill="#0d47a1"/>
    <circle id="Ellipse_83" data-name="Ellipse 83" cx="1.019" cy="1.019" r="1.019" transform="translate(-6.636 37.719)" fill="#0d47a1"/>
    <circle id="Ellipse_84" data-name="Ellipse 84" cx="2.708" cy="2.708" r="2.708" transform="translate(20.849 52.934)" fill="url(#linear-gradient)"/>
    <circle id="Ellipse_85" data-name="Ellipse 85" cx="2.708" cy="2.708" r="2.708" transform="translate(4.772 56.623)" fill="url(#linear-gradient)"/>
    <circle id="Ellipse_86" data-name="Ellipse 86" cx="2.708" cy="2.708" r="2.708" transform="translate(-161.987 54.514)" fill="url(#linear-gradient)"/>
    <circle id="Ellipse_87" data-name="Ellipse 87" cx="2.708" cy="2.708" r="2.708" transform="translate(-22.692 46.911)" fill="url(#linear-gradient)"/>
    <circle id="Ellipse_88" data-name="Ellipse 88" cx="2.708" cy="2.708" r="2.708" transform="translate(-53.575 45.095)" fill="url(#linear-gradient)"/>
    <circle id="Ellipse_89" data-name="Ellipse 89" cx="2.708" cy="2.708" r="2.708" transform="translate(-58.967 72.678)" fill="url(#linear-gradient)"/>
    <circle id="Ellipse_90" data-name="Ellipse 90" cx="1.464" cy="1.464" r="1.464" transform="translate(13.992 37.409)" fill="url(#linear-gradient)"/>
    <circle id="Ellipse_91" data-name="Ellipse 91" cx="1.464" cy="1.464" r="1.464" transform="translate(-15.267 60.398)" fill="url(#linear-gradient)"/>
    <circle id="Ellipse_92" data-name="Ellipse 92" cx="1.464" cy="1.464" r="1.464" transform="translate(-62.407 53.946)" fill="url(#linear-gradient)"/>
    <circle id="Ellipse_93" data-name="Ellipse 93" cx="1.464" cy="1.464" r="1.464" transform="translate(-51.731 72.597)" fill="url(#linear-gradient)"/>
    <circle id="Ellipse_94" data-name="Ellipse 94" cx="1.464" cy="1.464" r="1.464" transform="translate(-33.006 68.894)" fill="url(#linear-gradient)"/>
    <circle id="Ellipse_95" data-name="Ellipse 95" cx="1.464" cy="1.464" r="1.464" transform="translate(-5.905 51.684)" fill="url(#linear-gradient)"/>
    <circle id="Ellipse_96" data-name="Ellipse 96" cx="1.013" cy="1.013" r="1.013" transform="translate(14.447 37.859)" fill="#82a9ff"/>
    <circle id="Ellipse_97" data-name="Ellipse 97" cx="1.893" cy="1.893" r="1.893" transform="translate(-81.08 45.799)" fill="#64b5f6"/>
    <ellipse id="Ellipse_98" data-name="Ellipse 98" cx="8.445" cy="1.456" rx="8.445" ry="1.456" transform="translate(-21.918 88.857)" opacity="0.2"/>
    <circle id="Ellipse_99" data-name="Ellipse 99" cx="6.698" cy="6.698" r="6.698" transform="translate(-99.335 110.546)" fill="#aa4562"/>
    <path id="Path_1096" data-name="Path 1096" d="M6.7,0A6.7,6.7,0,1,1,0,6.7,6.7,6.7,0,0,1,6.7,0Z" transform="translate(-18.405 109.548)" fill="#aa4562"/>
    <rect id="Rectangle_77" data-name="Rectangle 77" width="1.165" height="18.347" transform="translate(-16.719 65.737)" fill="#fff"/>
    <rect id="Rectangle_78" data-name="Rectangle 78" width="1.165" height="18.347" transform="translate(-4.685 66.797)" fill="#fff"/>
  </g>
  <g id="Group_14" data-name="Group 14" transform="translate(-0.004)">
    <path id="Path_146" data-name="Path 146" d="M328.19,109.966a1.461,1.461,0,0,1-.814-1.766.7.7,0,0,0,.032-.162h0a.733.733,0,0,0-1.316-.486h0a.7.7,0,0,0-.081.144,1.461,1.461,0,0,1-1.766.814.7.7,0,0,0-.162-.032h0a.733.733,0,0,0-.486,1.316h0a.7.7,0,0,0,.144.081,1.461,1.461,0,0,1,.814,1.766.7.7,0,0,0-.032.162h0a.733.733,0,0,0,1.316.486h0a.7.7,0,0,0,.081-.144,1.461,1.461,0,0,1,1.766-.814.7.7,0,0,0,.162.032h0a.733.733,0,0,0,.486-1.316h0A.7.7,0,0,0,328.19,109.966Z" transform="translate(-275.157 -90.898)" fill="#4d8af0" opacity="0.5"/>
    <path id="Path_147" data-name="Path 147" d="M182.19,434.966a1.461,1.461,0,0,1-.814-1.766.7.7,0,0,0,.032-.162h0a.733.733,0,0,0-1.316-.486h0a.7.7,0,0,0-.081.144,1.461,1.461,0,0,1-1.766.814.7.7,0,0,0-.162-.032h0a.733.733,0,0,0-.486,1.316h0a.7.7,0,0,0,.144.081,1.461,1.461,0,0,1,.814,1.766.7.7,0,0,0-.032.162h0a.733.733,0,0,0,1.316.486h0a.7.7,0,0,0,.081-.144,1.461,1.461,0,0,1,1.766-.814.7.7,0,0,0,.162.032h0a.733.733,0,0,0,.486-1.316h0A.705.705,0,0,0,182.19,434.966Z" transform="translate(-174.517 -323.458)" fill="#4d8af0" opacity="0.5"/>
    <circle id="Ellipse_36" data-name="Ellipse 36" cx="2.386" cy="2.386" r="2.386" transform="translate(208.396 73.742)" fill="#f55f44" opacity="0.5"/>
    <circle id="Ellipse_37" data-name="Ellipse 37" cx="2.386" cy="2.386" r="2.386" transform="translate(45.887 198.297)" fill="#f55f44" opacity="0.5"/>
    <circle id="Ellipse_38" data-name="Ellipse 38" cx="2.386" cy="2.386" r="2.386" transform="translate(248.952 142.43)" fill="#f55f44" opacity="0.5"/>
    <path id="Path_148" data-name="Path 148" d="M867.19,138.966a1.461,1.461,0,0,1-.814-1.766.7.7,0,0,0,.032-.162h0a.733.733,0,0,0-1.316-.486h0a.7.7,0,0,0-.081.144,1.461,1.461,0,0,1-1.766.814.7.7,0,0,0-.162-.032h0a.733.733,0,0,0-.486,1.316h0a.7.7,0,0,0,.144.081,1.461,1.461,0,0,1,.814,1.766.7.7,0,0,0-.032.162h0a.733.733,0,0,0,1.316.486h0a.7.7,0,0,0,.081-.144,1.461,1.461,0,0,1,1.766-.814.7.7,0,0,0,.162.032h0a.733.733,0,0,0,.486-1.316h0A.7.7,0,0,0,867.19,138.966Z" transform="translate(-661.171 -108.367)" fill="#4d8af0" opacity="0.5"/>
    <path id="Path_149" data-name="Path 149" d="M967.19,766.966a1.461,1.461,0,0,1-.814-1.766.7.7,0,0,0,.032-.162h0a.733.733,0,0,0-1.316-.486h0a.706.706,0,0,0-.081.144,1.461,1.461,0,0,1-1.766.814.7.7,0,0,0-.162-.032h0a.733.733,0,0,0-.485,1.316h0a.707.707,0,0,0,.144.081,1.461,1.461,0,0,1,.814,1.766.712.712,0,0,0-.032.162h0a.733.733,0,0,0,1.316.486h0a.7.7,0,0,0,.081-.144,1.461,1.461,0,0,1,1.766-.814.7.7,0,0,0,.162.032h0a.733.733,0,0,0,.485-1.316h0a.7.7,0,0,0-.144-.081Z" transform="translate(-734.185 -557.553)" fill="#4d8af0" opacity="0.5"/>
    <path id="Path_150" data-name="Path 150" d="M175.19,244.966a1.461,1.461,0,0,1-.814-1.766.7.7,0,0,0,.032-.162h0a.733.733,0,0,0-1.316-.486h0a.7.7,0,0,0-.081.144,1.461,1.461,0,0,1-1.766.814.7.7,0,0,0-.162-.032h0a.733.733,0,0,0-.486,1.316h0a.7.7,0,0,0,.144.081,1.461,1.461,0,0,1,.814,1.766.7.7,0,0,0-.032.162h0a.733.733,0,0,0,1.316.486h0a.7.7,0,0,0,.081-.144,1.461,1.461,0,0,1,1.766-.814.7.7,0,0,0,.162.032h0a.733.733,0,0,0,.486-1.316h0A.7.7,0,0,0,175.19,244.966Z" transform="translate(-170.3 -189.917)" fill="#4d8af0" opacity="0.5"/>
    <circle id="Ellipse_39" data-name="Ellipse 39" cx="2.386" cy="2.386" r="2.386" transform="translate(29.187 82.663)" fill="#47e6b1" opacity="0.5"/>
    <circle id="Ellipse_40" data-name="Ellipse 40" cx="2.386" cy="2.386" r="2.386" transform="translate(250.145 96.936)" fill="#47e6b1" opacity="0.5"/>
    <g id="Group_9" data-name="Group 9" transform="translate(169.799)" opacity="0.5">
      <rect id="Rectangle_58" data-name="Rectangle 58" width="1.193" height="6.759" transform="translate(2.783)" fill="#47e6b1"/>
      <rect id="Rectangle_59" data-name="Rectangle 59" width="1.193" height="6.759" transform="translate(6.759 2.783) rotate(90)" fill="#47e6b1"/>
    </g>
    <g id="Group_10" data-name="Group 10" transform="translate(173.039 193.923)" opacity="0.5">
      <rect id="Rectangle_60" data-name="Rectangle 60" width="1.193" height="6.759" transform="translate(2.783)" fill="#47e6b1"/>
      <rect id="Rectangle_61" data-name="Rectangle 61" width="1.193" height="6.759" transform="translate(6.759 2.783) rotate(90)" fill="#47e6b1"/>
    </g>
    <g id="Group_11" data-name="Group 11" transform="translate(7.716 208.237)" opacity="0.5">
      <rect id="Rectangle_62" data-name="Rectangle 62" width="1.193" height="6.759" transform="translate(2.783)" fill="#47e6b1"/>
      <rect id="Rectangle_63" data-name="Rectangle 63" width="1.193" height="6.759" transform="translate(6.759 2.783) rotate(90)" fill="#47e6b1"/>
    </g>
    <g id="Group_12" data-name="Group 12" transform="translate(197.211 117.467)" opacity="0.5">
      <rect id="Rectangle_64" data-name="Rectangle 64" width="1.193" height="6.759" transform="translate(2.783)" fill="#47e6b1"/>
      <rect id="Rectangle_65" data-name="Rectangle 65" width="1.193" height="6.759" transform="translate(6.759 2.783) rotate(90)" fill="#47e6b1"/>
    </g>
    <path id="Path_151" data-name="Path 151" d="M793.989,118.489l2.562,2.348,3.629-5.338,1.281,1.068-4.911,6.405-3.629-4.056Z" transform="translate(-564.437 -68.026)" fill="#47e6b1" opacity="0.5"/>
  </g>
</svg>
